<?xml version="1.0" encoding="UTF-8"?>
<svg version="1.1" xmlns="http://www.w3.org/2000/svg" width="500" height="500">
<path d="M0 0 C0.76166977 0.00222061 1.52333954 0.00444122 2.30809021 0.00672913 C3.16890701 0.00680466 4.02972382 0.00688019 4.91662598 0.00695801 C5.8520372 0.01211929 6.78744843 0.01728058 7.75120544 0.02259827 C8.70422043 0.02401321 9.65723541 0.02542816 10.63912964 0.02688599 C13.69605085 0.032503 16.75289996 0.04505836 19.80979919 0.05775452 C21.87685543 0.06276733 23.94391281 0.06733061 26.01097107 0.07142639 C31.08977507 0.08247795 36.16852489 0.09975397 41.24729919 0.12025452 C43.42342947 4.37536235 45.54821199 8.58622533 47.21214294 13.07337952 C47.534328 13.93310364 47.85651306 14.79282776 48.1884613 15.67860413 C48.68164856 17.01097107 48.68164856 17.01097107 49.18479919 18.37025452 C51.63276836 24.88675854 54.12023726 31.36644907 56.83714294 37.77650452 C61.76478808 49.46089298 66.57822076 61.19915575 71.07151794 73.05775452 C72.42183381 76.57485632 73.83377958 80.06576507 75.24729919 83.55775452 C77.22828758 88.45607258 79.06982871 93.37943008 80.80979919 98.37025452 C82.57899108 103.40262255 84.60124427 108.19328837 86.86448669 113.01869202 C89.94641666 119.93126939 92.54465044 127.05283825 95.24729919 134.12025452 C98.68544201 143.09488881 102.16768072 152.05128393 105.68479919 160.99525452 C106.17341487 162.23931027 106.66202155 163.48336955 107.15061951 164.72743225 C109.57347443 170.89007046 112.01381383 177.04432843 114.49729919 183.18275452 C116.70653578 188.66140732 118.73755441 194.19155469 120.74729919 199.74525452 C123.14076703 206.34663554 125.81012033 212.70711997 128.82542419 219.05384827 C130.35604972 222.35478518 131.76704011 225.68102754 133.12229919 229.05775452 C133.53222107 230.07740295 133.94214294 231.09705139 134.36448669 232.14759827 C135.24729919 235.12025452 135.24729919 235.12025452 135.24729919 241.12025452 C119.40729919 241.12025452 103.56729919 241.12025452 87.24729919 241.12025452 C84.50068111 235.62701834 82.22396236 230.56015854 80.30979919 224.80775452 C78.33390446 219.03537263 76.14496849 213.51038708 73.53245544 207.99134827 C70.44413423 201.09190725 67.95940982 193.91305609 65.41746521 186.79725647 C61.93913657 177.10611052 58.14553313 167.53763923 54.38621521 157.95301819 C50.89644273 149.04996929 47.47750101 140.14225428 44.33079529 131.11097717 C43.25079439 128.12990214 42.05992124 125.22110533 40.80979919 122.30775452 C38.45999625 116.79787174 36.46576418 111.19917927 34.56590271 105.52137756 C33.20915042 101.5504535 31.65494077 97.75195674 29.88792419 93.94447327 C26.94191244 87.57819487 24.46833578 81.05755827 21.99729919 74.49525452 C21.1194968 72.16882446 20.2394183 69.84325148 19.35667419 67.51869202 C18.97478943 66.50468323 18.59290466 65.49067444 18.19944763 64.44593811 C17.45416082 62.19829018 17.45416082 62.19829018 16.24729919 61.12025452 C15.69042419 62.69806702 15.69042419 62.69806702 15.12229919 64.30775452 C13.79391709 67.85010679 12.27959835 71.25989387 10.66917419 74.68275452 C8.06025543 80.30169058 5.54970098 85.95696136 3.08323669 91.63978577 C2.72055695 92.47523422 2.3578772 93.31068268 1.98420715 94.17144775 C0.48170506 97.63619242 -1.01844273 101.10195098 -2.51734924 104.56825256 C-3.62776219 107.13458809 -4.74088681 109.69973484 -5.85426331 112.26478577 C-6.18665009 113.03579117 -6.51903687 113.80679657 -6.86149597 114.60116577 C-8.74639282 118.9403708 -10.74427753 123.1920597 -12.90489197 127.40119934 C-14.05114511 129.72539356 -14.91703522 132.1067175 -15.75270081 134.55775452 C-16.95037789 138.05989065 -18.31212536 141.43163051 -19.82301331 144.80799866 C-20.18411194 145.6162056 -20.54521057 146.42441254 -20.91725159 147.2571106 C-21.33079895 148.17936684 -21.33079895 148.17936684 -21.75270081 149.12025452 C-20.47105042 149.10978088 -19.18940002 149.09930725 -17.86891174 149.08851624 C-13.11291803 149.05231054 -8.3569365 149.02935189 -3.60084534 149.01039124 C-1.54255627 149.00033498 0.51571852 148.98668822 2.57395935 148.96937561 C5.53281682 148.94511098 8.49148536 148.93376764 11.45042419 148.92494202 C12.37035156 148.91461945 13.29027893 148.90429688 14.23808289 148.8936615 C15.0986731 148.89351044 15.95926331 148.89335937 16.84593201 148.89320374 C17.97844391 148.8865419 17.97844391 148.8865419 19.13383484 148.87974548 C21.59575009 149.1599077 23.15976925 149.79320696 25.24729919 151.12025452 C26.71116638 153.82240295 26.71116638 153.82240295 28.04417419 157.22962952 C28.2826709 157.83405884 28.5211676 158.43848816 28.76689148 159.06123352 C29.26757473 160.33968676 29.76138773 161.62084909 30.24876404 162.9044342 C30.9919927 164.85631847 31.76026387 166.79686102 32.53245544 168.73744202 C36.68638679 179.42472111 36.68638679 179.42472111 36.24729919 185.12025452 C34.38703998 186.98051373 31.287002 186.2939788 28.79978943 186.32557678 C28.12664703 186.33547638 27.45350464 186.34537598 26.75996399 186.35557556 C24.52530995 186.38727289 22.29063461 186.41198026 20.05589294 186.43666077 C18.51031935 186.45722321 16.96475148 186.47821948 15.41918945 186.49963379 C11.34379188 186.55492789 7.26834294 186.60430465 3.19285583 186.65248108 C-0.96287121 186.70264268 -5.11852332 186.75835656 -9.27418518 186.81361389 C-17.43362711 186.92128515 -25.59313156 187.02271004 -33.75270081 187.12025452 C-34.00897247 187.69109268 -34.26524414 188.26193085 -34.52928162 188.85006714 C-35.70479747 191.46770709 -36.88108717 194.08499861 -38.05738831 196.70228577 C-38.46046204 197.60015808 -38.86353577 198.4980304 -39.27882385 199.42311096 C-41.44244383 204.23567971 -43.62979072 209.03398002 -45.87770081 213.80775452 C-48.5678786 219.59389111 -51.0023915 225.47226352 -53.39381409 231.38661194 C-54.7396009 234.70821953 -56.1480763 237.9110055 -57.75270081 241.12025452 C-74.58270081 241.12025452 -91.41270081 241.12025452 -108.75270081 241.12025452 C-108.75270081 235.87314906 -108.04115831 234.22738987 -105.62770081 229.74525452 C-102.71526196 224.19083864 -100.28242593 218.62079032 -98.01051331 212.77210999 C-96.12326871 207.95693317 -94.01576959 203.2809168 -91.78883362 198.61122131 C-87.99853724 190.61779358 -84.47577849 182.50182513 -80.92799377 174.39857483 C-80.43186584 173.272901 -79.93573792 172.14722717 -79.42457581 170.98744202 C-78.9821051 169.97794495 -78.5396344 168.96844788 -78.08375549 167.92835999 C-76.79325007 165.20580066 -75.31845188 162.69126396 -73.75270081 160.12025452 C-73.12711254 158.4900139 -72.54489801 156.84259407 -72.00270081 155.18275452 C-70.52538302 150.99334588 -68.80222431 147.12261524 -66.75270081 143.18275452 C-63.06484086 135.99778601 -59.90427415 128.61580671 -56.75270081 121.18275452 C-53.11984032 112.62168238 -49.43692428 104.11576869 -45.44801331 95.71400452 C-43.39874732 91.36993837 -41.41265978 86.99963105 -39.44020081 82.62025452 C-39.06500305 81.78735901 -38.6898053 80.9544635 -38.30323792 80.09632874 C-35.34779611 73.50634889 -32.48465567 66.87838201 -29.62770081 60.24525452 C-26.42217059 52.80474342 -23.02512873 45.55693398 -19.32301331 38.35072327 C-17.08495403 33.74655655 -15.29053172 28.99447956 -13.43629456 24.22572327 C-11.46841542 19.30785999 -9.2104719 14.52932836 -6.94020081 9.74525452 C-6.54268616 8.90583313 -6.14517151 8.06641174 -5.73561096 7.20155334 C-2.36522609 0.16228048 -2.36522609 0.16228048 0 0 Z M-0.75270081 6.12025452 C-2.38808584 8.68394931 -3.56293963 10.90869794 -4.74098206 13.67103577 C-5.08580627 14.4333551 -5.43063049 15.19567444 -5.78590393 15.98109436 C-6.89945785 18.45641154 -7.98243996 20.943834 -9.06520081 23.43275452 C-9.82216532 25.13104232 -10.58087711 26.8285524 -11.34132385 28.52528381 C-13.50790602 33.37759165 -15.63695698 38.24559807 -17.75270081 43.12025452 C-18.02888245 43.75544006 -18.30506409 44.39062561 -18.58961487 45.0450592 C-20.43662024 49.29625386 -22.27890263 53.54913527 -24.06446838 57.82655334 C-25.8083802 62.0041297 -27.68892927 66.05935037 -29.7412262 70.09413147 C-31.54089499 73.6991161 -33.1710805 77.3798799 -34.81520081 81.05775452 C-35.19515198 81.90386292 -35.57510315 82.74997131 -35.96656799 83.62171936 C-38.20331865 88.61520663 -40.41394098 93.61965956 -42.60816956 98.63197327 C-43.08955383 99.73097961 -43.57093811 100.82998596 -44.06690979 101.96229553 C-44.99998049 104.09577652 -45.93061963 106.23032318 -46.8584137 108.36610413 C-48.9065757 113.05320756 -51.00401041 117.68150195 -53.33082581 122.23744202 C-55.37438862 126.25660879 -57.07714314 130.33104623 -58.71168518 134.53041077 C-60.63128484 139.30600016 -62.83600674 143.95294506 -65.00270081 148.62025452 C-68.33859375 155.85116579 -71.65719288 163.08714156 -74.87770081 170.37025452 C-77.56321782 176.44324682 -80.27164514 182.50509554 -83.00270081 188.55775452 C-88.19672823 200.07614563 -93.32814738 211.62250236 -98.44264221 223.17640686 C-99.28576183 225.07099061 -100.13641222 226.96225024 -100.99635315 228.84925842 C-101.36325256 229.65669495 -101.73015198 230.46413147 -102.10816956 231.29603577 C-102.58806335 232.34078064 -102.58806335 232.34078064 -103.07765198 233.40663147 C-103.87487333 235.12342636 -103.87487333 235.12342636 -103.75270081 237.12025452 C-99.02545531 238.04485834 -94.41805766 238.29523812 -89.61598206 238.32337952 C-88.85472519 238.32907959 -88.09346832 238.33477966 -87.30914307 238.34065247 C-85.70985789 238.35004971 -84.11055382 238.3566153 -82.51124573 238.36048889 C-80.0620976 238.37026691 -77.61376441 238.4013671 -75.16481018 238.43275452 C-73.60687243 238.43927874 -72.04892872 238.44453148 -70.49098206 238.44837952 C-69.75970596 238.46072632 -69.02842987 238.47307312 -68.2749939 238.48579407 C-64.35055431 238.48660712 -64.35055431 238.48660712 -60.88575745 236.83998108 C-59.68857426 235.02292476 -58.74610297 233.27635098 -57.88551331 231.27650452 C-57.39728088 230.15804138 -57.39728088 230.15804138 -56.89918518 229.01698303 C-56.39355042 227.83060242 -56.39355042 227.83060242 -55.87770081 226.62025452 C-55.16194686 224.97294877 -54.44580285 223.32581245 -53.72926331 221.67884827 C-53.21541077 220.48944641 -53.21541077 220.48944641 -52.69117737 219.27601624 C-51.5817071 216.7274672 -50.42353668 214.20363584 -49.25270081 211.68275452 C-46.91283341 206.55427804 -44.70257836 201.37242142 -42.50270081 196.18275452 C-42.14885315 195.35267883 -41.79500549 194.52260315 -41.43043518 193.66737366 C-41.09850159 192.8796759 -40.76656799 192.09197815 -40.42457581 191.28041077 C-40.1264801 190.57537415 -39.8283844 189.87033752 -39.52125549 189.14393616 C-38.59622717 186.82785177 -38.59622717 186.82785177 -37.75270081 183.12025452 C-14.65270081 182.79025452 8.44729919 182.46025452 32.24729919 182.12025452 C27.9237906 167.03644948 27.9237906 167.03644948 21.24729919 153.12025452 C19.11149936 152.68294054 19.11149936 152.68294054 16.61399841 152.77967834 C15.17273087 152.78001823 15.17273087 152.78001823 13.7023468 152.78036499 C12.14291855 152.80359077 12.14291855 152.80359077 10.55198669 152.82728577 C9.48940643 152.83153061 8.42682617 152.83577545 7.33204651 152.84014893 C3.92854274 152.85698062 0.52562486 152.89464149 -2.87770081 152.93275452 C-5.18107769 152.94779553 -7.48446383 152.96148494 -9.78785706 152.97377014 C-15.44300586 153.00689878 -21.09781149 153.05714255 -26.75270081 153.12025452 C-26.2322096 149.52666053 -25.62336121 146.36042453 -24.11598206 143.05384827 C-23.78896301 142.32762268 -23.46194397 141.60139709 -23.12501526 140.85316467 C-22.77527649 140.09567932 -22.42553772 139.33819397 -22.06520081 138.55775452 C-21.5260907 137.36738586 -21.5260907 137.36738586 -20.97608948 136.15296936 C-18.39340008 130.46404917 -15.75336545 124.80141413 -13.11988831 119.13587952 C-11.30255058 115.12735173 -9.63036619 111.06502355 -7.95582581 106.99525452 C-6.44411978 103.38286609 -4.82200352 99.82806169 -3.19020081 96.26869202 C1.59788112 85.78175172 6.24189984 75.23166893 10.74729919 64.62025452 C11.0976825 63.8010553 11.4480658 62.98185608 11.80906677 62.13783264 C13.59471545 58.26522568 13.59471545 58.26522568 14.24729919 54.12025452 C15.89729919 54.12025452 17.54729919 54.12025452 19.24729919 54.12025452 C19.45093079 54.99375549 19.45093079 54.99375549 19.65867615 55.88490295 C20.20631577 57.9646161 20.87464044 59.88802169 21.66526794 61.88587952 C21.94676697 62.60219543 22.22826599 63.31851135 22.51829529 64.05653381 C22.82074158 64.82006165 23.12318787 65.58358948 23.43479919 66.37025452 C25.71124474 72.16605928 27.95616363 77.96982915 30.12229919 83.80775452 C32.61296475 90.50280711 35.20139382 97.15776576 37.80979919 103.80775452 C38.394953 105.29976379 38.394953 105.29976379 38.9919281 106.82191467 C39.74315328 108.73682115 40.49445215 110.65169871 41.24583435 112.56654358 C44.59580689 121.10889189 47.83947419 129.670503 50.84104919 138.34291077 C51.95853133 141.44313413 53.22064597 144.47071226 54.50120544 147.50697327 C57.7430403 155.22628497 60.70887488 163.04573834 63.68479919 170.87025452 C64.23737645 172.31823115 64.79011028 173.76614805 65.34300232 175.21400452 C68.06259962 182.34242461 70.76110927 189.47839547 73.43479919 196.62416077 C75.80334563 202.95433817 78.22165174 209.26263918 80.69163513 215.55384827 C82.06143375 219.04992395 83.41421654 222.54805679 84.69651794 226.07728577 C85.12577576 227.24646545 85.55503357 228.41564514 85.99729919 229.62025452 C86.36339294 230.64119202 86.72948669 231.66212952 87.10667419 232.71400452 C88.13542011 235.41707587 88.13542011 235.41707587 91.24729919 237.12025452 C94.2212098 237.292478 97.09932838 237.35219652 100.07151794 237.31556702 C100.93291885 237.31273712 101.79431976 237.30990723 102.68182373 237.30699158 C105.43295688 237.29579689 108.18376444 237.27069373 110.93479919 237.24525452 C112.80002887 237.23522379 114.66526364 237.2260981 116.53050232 237.21791077 C121.10289339 237.19585989 125.67504109 237.161335 130.24729919 237.12025452 C129.6746006 234.01900589 128.98181965 231.10524525 127.89964294 228.14369202 C127.62821472 227.40038635 127.3567865 226.65708069 127.07713318 225.89125061 C126.78266296 225.1005719 126.48819275 224.30989319 126.18479919 223.49525452 C125.87679382 222.66203674 125.56878845 221.82881897 125.25144958 220.97035217 C122.74316103 214.26689594 119.98545807 207.68762824 117.16136169 201.11244202 C114.71352617 195.36287487 112.56868589 189.55562965 110.55328369 183.6423645 C108.87156398 178.76410247 107.00878024 173.99695902 105.00901794 169.24134827 C101.22876401 160.15433751 97.66317374 150.99013763 94.12229919 141.80775452 C90.61557314 132.7178264 87.09039824 123.64944434 83.30638123 114.67030334 C81.85871454 111.18462364 80.54666534 107.66398037 79.24729919 104.12025452 C76.07560728 95.56394353 72.66924721 87.14225616 68.80979919 78.87025452 C66.4872563 73.81998992 64.5353901 68.65862064 62.61863708 63.44544983 C60.77398697 58.45383716 58.79809721 53.53047341 56.74729919 48.62025452 C54.48527674 43.20027372 52.33542383 37.75784727 50.30979919 32.24525452 C48.00308806 26.00277668 45.54735414 19.82986866 42.99729919 13.68275452 C42.4850177 12.42906067 42.4850177 12.42906067 41.96238708 11.15003967 C41.4769342 9.99254211 41.4769342 9.99254211 40.98167419 8.81166077 C40.69518005 8.12273743 40.40868591 7.43381409 40.11351013 6.72401428 C39.3419105 4.92820731 39.3419105 4.92820731 37.24729919 4.12025452 C32.75237327 3.90752139 28.25353955 3.93446037 23.75413513 3.93495178 C21.51988866 3.93277651 19.28614504 3.9146498 17.05198669 3.89564514 C15.62230088 3.8927088 14.19261272 3.89072562 12.76292419 3.88978577 C11.46644958 3.88567688 10.16997498 3.88156799 8.83421326 3.87733459 C5.09358402 4.13066471 2.57498318 4.37530297 -0.75270081 6.12025452 Z " fill="#91EEF0" transform="translate(169.75270080566406,124.87974548339844)"/>
<path d="M0 0 C0.76600997 0.00092179 1.53201994 0.00184359 2.32124233 0.00279331 C3.19768902 0.00141865 4.0741357 0.00004398 4.97714138 -0.00137234 C6.43046368 0.00402058 6.43046368 0.00402058 7.91314602 0.00952244 C8.92766338 0.00937641 9.94218075 0.00923038 10.98744106 0.00907993 C14.35844936 0.00977954 17.72940317 0.01757414 21.10040188 0.02539158 C23.43067806 0.02725559 25.76095463 0.02867957 28.09123135 0.0296793 C34.23811828 0.03350581 40.38498176 0.04333723 46.5318594 0.05438328 C52.79884429 0.06459454 59.06583295 0.06917631 65.33282375 0.0742197 C77.63947471 0.08495938 89.94610822 0.10203739 102.25274563 0.12304783 C103.15172858 19.66736113 103.39376822 39.17488652 103.30743313 58.73632908 C103.30161172 60.19916544 103.29584592 61.66200203 103.29013348 63.12483883 C103.26251005 69.99124738 103.22933861 76.85760121 103.18917835 83.72394782 C103.14365567 91.5437226 103.11825488 99.36323515 103.1094979 107.18313533 C103.10128197 113.30979301 103.07391006 119.43619333 103.03289139 125.56271809 C103.00907329 129.18711596 102.9927368 132.81112041 102.9971571 136.43560314 C103.01555633 160.32332589 100.61111555 180.8719041 89.25274563 202.12304783 C88.59274563 202.12304783 87.93274563 202.12304783 87.25274563 202.12304783 C87.01555813 202.83847752 86.77837063 203.5539072 86.53399563 204.29101658 C85.04454294 207.58325194 83.18479716 209.7705563 80.75274563 212.43554783 C79.95868313 213.31855564 79.16462063 214.20156345 78.34649563 215.11132908 C76.25274563 217.12304783 76.25274563 217.12304783 74.25274563 217.12304783 C74.25274563 217.78304783 74.25274563 218.44304783 74.25274563 219.12304783 C66.40782632 225.72827619 56.51262967 230.54229968 46.25274563 231.12304783 C46.58274563 230.13304783 46.91274563 229.14304783 47.25274563 228.12304783 C49.80743313 227.01757908 49.80743313 227.01757908 53.12774563 225.93554783 C59.20886484 223.74126059 63.84975955 220.87456921 68.91290188 216.89257908 C70.97659326 215.33189094 72.90242514 214.18150625 75.25274563 213.12304783 C75.25274563 212.46304783 75.25274563 211.80304783 75.25274563 211.12304783 C75.91274563 211.12304783 76.57274563 211.12304783 77.25274563 211.12304783 C77.25274563 210.46304783 77.25274563 209.80304783 77.25274563 209.12304783 C77.91274563 209.12304783 78.57274563 209.12304783 79.25274563 209.12304783 C79.52602688 208.54425877 79.79930813 207.9654697 80.08087063 207.36914158 C81.23888793 205.14960842 82.54926541 203.22120158 84.00274563 201.18554783 C98.90989821 178.95238628 98.6053134 153.36075094 98.94024563 127.62304783 C98.95982316 126.28170506 98.97965104 124.94036593 98.99972439 123.59903049 C99.428297 94.49524825 99.47816008 65.4275992 96.47589016 36.44482517 C96.01362875 31.63508121 95.76652325 26.81010175 95.49883938 21.98632908 C95.28980497 19.55423037 94.84183698 17.4745846 94.25274563 15.12304783 C94.18726071 13.54093209 94.16696182 11.95634702 94.19024563 10.37304783 C94.19926907 9.57382908 94.2082925 8.77461033 94.21758938 7.95117283 C94.22919094 7.34789158 94.2407925 6.74461033 94.25274563 6.12304783 C90.52602107 4.88080631 87.06973274 4.9835319 83.18878078 4.9936533 C81.95659061 4.99102482 81.95659061 4.99102482 80.69950771 4.98834324 C77.98025311 4.98393723 75.26106341 4.98685888 72.54180813 4.99023533 C70.65235284 4.9895618 68.76289764 4.98859137 66.87344265 4.98733616 C62.91067589 4.98586077 58.94793165 4.98800817 54.9851675 4.99267673 C49.90870584 4.99836613 44.83229714 4.99509901 39.75583744 4.98910427 C35.8524832 4.98548773 31.94914148 4.98664242 28.04578686 4.98923206 C26.17430903 4.98989871 24.30283006 4.98908207 22.43135357 4.98675251 C19.81270504 4.98420895 17.19414173 4.988091 14.57549953 4.9936533 C13.80337627 4.99162907 13.03125301 4.98960484 12.23573208 4.98751926 C8.44968084 5.00239371 4.93351843 5.20851408 1.25274563 6.12304783 C1.37842922 7.03570408 1.37842922 7.03570408 1.50665188 7.96679783 C2.19735739 13.91211106 2.21135322 19.57887159 1.78008938 25.52929783 C1.73042019 26.26309666 1.680751 26.99689548 1.62957668 27.75293064 C1.50784165 29.54323743 1.38084104 31.33318488 1.25274563 33.12304783 C1.93734859 33.12082722 2.62195156 33.11860661 3.32730007 33.1163187 C10.43200059 33.0942503 17.53669143 33.07913468 24.6414175 33.06811619 C27.29539288 33.06307741 29.94936546 33.05624631 32.60333157 33.04760838 C36.41095574 33.03552294 40.21854332 33.02981508 44.02618313 33.02539158 C45.21891842 33.02023029 46.41165371 33.01506901 47.64053249 33.00975132 C48.74152279 33.00967579 49.84251308 33.00960026 50.97686672 33.00952244 C51.94949459 33.00730183 52.92212246 33.00508121 53.9242239 33.00279331 C56.25274563 33.12304783 56.25274563 33.12304783 58.25274563 34.12304783 C58.27601375 47.92816401 58.29373401 61.73327546 58.3045578 75.53840733 C58.30975516 81.95009146 58.31679503 88.36176209 58.32818508 94.77343845 C58.33912658 100.9720787 58.34504612 107.17070603 58.34762287 113.3693552 C58.34945696 115.72297462 58.35303807 118.0765934 58.35847569 120.43020725 C58.47392401 172.51751327 58.47392401 172.51751327 44.25274563 187.12304783 C43.59274563 187.12304783 42.93274563 187.12304783 42.25274563 187.12304783 C42.25274563 187.78304783 42.25274563 188.44304783 42.25274563 189.12304783 C30.88875393 196.38337586 17.62793267 199.15801261 4.25274563 197.12304783 C-0.98981704 195.70424191 -5.87989666 193.50358959 -10.74725437 191.12304783 C-9.06000177 200.99256845 -4.33443939 210.2661929 -0.07928562 219.24804783 C1.25274563 222.12304783 1.25274563 222.12304783 2.20587063 224.88867283 C3.16429589 227.5407581 3.16429589 227.5407581 6.81524563 228.87304783 C12.88547015 230.63857065 19.18235572 230.68096083 25.45977688 230.91211033 C28.28670384 231.06932357 30.58549617 231.26896795 33.25274563 232.12304783 C33.25274563 232.78304783 33.25274563 233.44304783 33.25274563 234.12304783 C29.6070685 234.21121688 25.96167088 234.26382731 22.31524563 234.31054783 C21.2936636 234.33568455 20.27208157 234.36082127 19.2195425 234.3867197 C12.40469434 234.45203774 5.13552904 234.31515779 -0.37640476 229.78369236 C-1.94287154 227.88607757 -2.7296137 226.17131104 -3.61444187 223.87695408 C-3.94033298 223.04502537 -4.2662241 222.21309666 -4.6019907 221.35595798 C-4.93867771 220.47472263 -5.27536472 219.59348728 -5.62225437 218.68554783 C-6.33132001 216.87152293 -7.04095379 215.05772 -7.75116062 213.24414158 C-8.09292332 212.36483982 -8.43468601 211.48553806 -8.78680515 210.5795908 C-12.32938951 201.46062044 -12.32938951 201.46062044 -16.62225437 192.68554783 C-17.9431922 189.67674501 -17.74468974 188.20602988 -16.74725437 185.12304783 C-10.62788231 185.59376876 -5.35641143 187.12607441 0.42071438 189.18554783 C10.60216507 192.55595909 24.45141477 193.17812622 34.21368313 188.38086033 C44.7615396 181.87432818 49.08916578 172.85648653 52.25274563 161.12304783 C55.03948591 148.15865972 54.60265427 134.88024679 54.66680813 121.69336033 C54.68554769 119.24713604 54.70512311 116.80091802 54.72549343 114.35470676 C54.7765262 107.95981665 54.81630532 101.56490564 54.85363674 95.16992283 C54.89385856 88.62690276 54.94486742 82.08396742 54.99493313 75.54101658 C55.0913502 62.73508781 55.17623024 49.9291102 55.25274563 37.12304783 C54.03059856 37.28505177 52.8084515 37.4470557 51.54926968 37.61396885 C48.5224585 37.9913664 45.56179671 38.25225786 42.50836086 38.2683115 C41.2518195 38.27788128 41.2518195 38.27788128 39.96989346 38.28764439 C39.09257061 38.28875721 38.21524776 38.28987003 37.31133938 38.29101658 C36.38483074 38.29434498 35.45832211 38.29767338 34.50373745 38.30110264 C32.55655313 38.30613751 30.60936028 38.30851204 28.66216946 38.30835056 C25.69547223 38.31054396 22.72914322 38.3287552 19.76251125 38.3476572 C17.86212189 38.35059054 15.96173077 38.35257573 14.06133938 38.35351658 C13.1819923 38.3607021 12.30264523 38.36788761 11.39665127 38.37529087 C6.29264458 38.3564744 2.08940392 37.77426047 -2.74725437 36.12304783 C-2.77190535 31.15682434 -2.79009086 26.19063616 -2.80218601 21.22436619 C-2.80722627 19.53360467 -2.81405842 17.84284754 -2.82269382 16.15210056 C-2.83477294 13.72704076 -2.8404856 11.30203839 -2.84491062 8.87695408 C-2.85007191 8.11653309 -2.85523319 7.3561121 -2.86055088 6.57264805 C-2.86074675 4.75572212 -2.80922714 2.93891655 -2.74725437 1.12304783 C-1.74725437 0.12304783 -1.74725437 0.12304783 0 0 Z " fill="#A9E9EB" transform="translate(332.74725437164307,133.87695217132568)"/>
<path d="M0 0 C34.32 0 68.64 0 104 0 C105.15077179 31.07083829 105.15077179 31.07083829 105.10107422 42.20043945 C105.0987101 44.14307426 105.0987101 44.14307426 105.09629822 46.12495422 C105.09032765 50.28777148 105.07306006 54.45050325 105.0546875 58.61328125 C105.0488661 60.07611762 105.04310029 61.5389542 105.03738785 63.001791 C105.00976442 69.86819955 104.97659298 76.73455339 104.93643272 83.60089999 C104.89091004 91.42067477 104.86550925 99.24018732 104.85675228 107.0600875 C104.84853634 113.18674518 104.82116443 119.3131455 104.78014576 125.43967026 C104.75632766 129.06406813 104.73999118 132.68807258 104.74441147 136.31255531 C104.7628107 160.20027806 102.35836992 180.74885628 91 202 C90.34 202 89.68 202 89 202 C88.7628125 202.71542969 88.525625 203.43085938 88.28125 204.16796875 C86.79179731 207.46020411 84.93205153 209.64750847 82.5 212.3125 C81.7059375 213.19550781 80.911875 214.07851563 80.09375 214.98828125 C78 217 78 217 76 217 C76 217.66 76 218.32 76 219 C68.15508069 225.60522836 58.25988404 230.41925185 48 231 C48.33 230.01 48.66 229.02 49 228 C51.5546875 226.89453125 51.5546875 226.89453125 54.875 225.8125 C60.95611921 223.61821276 65.59701392 220.75152138 70.66015625 216.76953125 C72.72384763 215.20884311 74.64967951 214.05845842 77 213 C77 212.34 77 211.68 77 211 C77.66 211 78.32 211 79 211 C79 210.34 79 209.68 79 209 C79.66 209 80.32 209 81 209 C81.27328125 208.42121094 81.5465625 207.84242188 81.828125 207.24609375 C82.9861423 205.02656059 84.29651978 203.09815375 85.75 201.0625 C100.65715258 178.82933845 100.35256777 153.23770311 100.6875 127.5 C100.70707753 126.15865724 100.72690541 124.8173181 100.74697876 123.47598267 C101.17555137 94.37220042 101.22541445 65.30455137 98.22314453 36.32177734 C97.76088312 31.51203338 97.51377762 26.68705392 97.24609375 21.86328125 C97.03705935 19.43118254 96.58909135 17.35153677 96 15 C95.93451508 13.41788427 95.91421619 11.83329919 95.9375 10.25 C95.94652344 9.45078125 95.95554687 8.6515625 95.96484375 7.828125 C95.97644531 7.22484375 95.98804688 6.6215625 96 6 C92.28593657 4.76197886 88.81869631 4.82343149 84.94848633 4.79467773 C83.71887932 4.77982834 83.71887932 4.77982834 82.46443176 4.76467896 C79.75366102 4.73307991 77.04287275 4.7083128 74.33203125 4.68359375 C72.45301354 4.66302285 70.57400045 4.64202634 68.69499207 4.62062073 C63.7482985 4.56541414 58.80156326 4.5159986 53.85479736 4.46777344 C48.80745738 4.41754813 43.76017793 4.36186743 38.71289062 4.30664062 C28.80864546 4.19907632 18.90434775 4.09762747 9 4 C9 3.67 9 3.34 9 3 C29.79 2.67 50.58 2.34 72 2 C48.24 1.67 24.48 1.34 0 1 C0 0.67 0 0.34 0 0 Z " fill="#8FEDF0" transform="translate(331,134)"/>
<path d="M0 0 C0.33 0 0.66 0 1 0 C1.495 2.97 1.495 2.97 2 6 C2.33 6 2.66 6 3 6 C2.54495791 17.55806905 -0.06802195 29.15584448 -8 38 C-10.1875 39.2421875 -10.1875 39.2421875 -12 40 C-12 40.66 -12 41.32 -12 42 C-23.36399169 49.26032803 -36.62481296 52.03496478 -50 50 C-55.24256267 48.58119408 -60.13264229 46.38054176 -65 44 C-63.31274739 53.86952062 -58.58718502 63.14314507 -54.33203125 72.125 C-53 75 -53 75 -52.046875 77.765625 C-51.08844974 80.41771028 -51.08844974 80.41771028 -47.4375 81.75 C-41.36727548 83.51552282 -35.07038991 83.557913 -28.79296875 83.7890625 C-25.96604179 83.94627574 -23.66724946 84.14592012 -21 85 C-21 85.66 -21 86.32 -21 87 C-24.64567713 87.08816905 -28.29107474 87.14077948 -31.9375 87.1875 C-32.95908203 87.21263672 -33.98066406 87.23777344 -35.03320312 87.26367188 C-41.84805129 87.32898991 -49.11721659 87.19210996 -54.62915039 82.66064453 C-56.19561717 80.76302974 -56.98235933 79.04826321 -57.8671875 76.75390625 C-58.19307861 75.92197754 -58.51896973 75.09004883 -58.85473633 74.23291016 C-59.19142334 73.3516748 -59.52811035 72.47043945 -59.875 71.5625 C-60.58406564 69.7484751 -61.29369942 67.93467217 -62.00390625 66.12109375 C-62.34566895 65.24179199 -62.68743164 64.36249023 -63.03955078 63.45654297 C-66.58213514 54.33757261 -66.58213514 54.33757261 -70.875 45.5625 C-72.19593782 42.55369718 -71.99743537 41.08298205 -71 38 C-64.88062793 38.47072093 -59.60915705 40.00302658 -53.83203125 42.0625 C-43.65058056 45.43291126 -29.80133086 46.0550784 -20.0390625 41.2578125 C-9.58169155 34.80709708 -4.99223408 25.72073257 -2 14 C-1.17170517 9.34844598 -0.52779715 4.69461678 0 0 Z " fill="#8FEDF0" transform="translate(387,281)"/>
<path d="M0 0 C34.32 0 68.64 0 104 0 C105.47472531 39.81758341 105.47472531 39.81758341 104.01147461 43.4621582 C102.59478874 48.41731026 102.64287877 53.17386735 102.5859375 58.3046875 C102.56657135 59.38380402 102.5472052 60.46292053 102.5272522 61.57473755 C102.46766058 65.00807895 102.42115239 68.44145424 102.375 71.875 C102.33680147 74.20834764 102.29774865 76.54168146 102.2578125 78.875 C102.16197583 84.58321032 102.07686888 90.29150444 102 96 C101.67 96 101.34 96 101 96 C100.970271 94.40853149 100.970271 94.40853149 100.93994141 92.78491211 C100.5757138 73.90407851 100.17023346 55.11823462 98.22314453 36.32177734 C97.76088312 31.51203338 97.51377762 26.68705392 97.24609375 21.86328125 C97.03705935 19.43118254 96.58909135 17.35153677 96 15 C95.93451508 13.41788427 95.91421619 11.83329919 95.9375 10.25 C95.94652344 9.45078125 95.95554687 8.6515625 95.96484375 7.828125 C95.97644531 7.22484375 95.98804688 6.6215625 96 6 C92.28593657 4.76197886 88.81869631 4.82343149 84.94848633 4.79467773 C83.71887932 4.77982834 83.71887932 4.77982834 82.46443176 4.76467896 C79.75366102 4.73307991 77.04287275 4.7083128 74.33203125 4.68359375 C72.45301354 4.66302285 70.57400045 4.64202634 68.69499207 4.62062073 C63.7482985 4.56541414 58.80156326 4.5159986 53.85479736 4.46777344 C48.80745738 4.41754813 43.76017793 4.36186743 38.71289062 4.30664062 C28.80864546 4.19907632 18.90434775 4.09762747 9 4 C9 3.67 9 3.34 9 3 C29.79 2.67 50.58 2.34 72 2 C48.24 1.67 24.48 1.34 0 1 C0 0.67 0 0.34 0 0 Z " fill="#67EAF2" transform="translate(331,134)"/>
<path d="M0 0 C18.81 0 37.62 0 57 0 C57.04010881 26.51192297 57.04010881 26.51192297 57.04882812 37.85351562 C57.05479504 45.57821341 57.06183771 53.30289929 57.07543945 61.02758789 C57.08634191 67.25862445 57.09229239 73.48964823 57.09487724 79.72069359 C57.09671826 82.09240101 57.10031322 84.46410776 57.10573006 86.83580971 C57.11303823 90.16960766 57.11398684 93.50335347 57.11352539 96.8371582 C57.11712067 97.80748993 57.12071594 98.77782166 57.12442017 99.77755737 C57.10427821 113.31405777 57.10427821 113.31405777 56 119 C55.01 119.495 55.01 119.495 54 120 C54 81.39 54 42.78 54 3 C51.36 3.33 48.72 3.66 46 4 C43 3.5625 43 3.5625 41 3 C41 2.67 41 2.34 41 2 C20.705 1.505 20.705 1.505 0 1 C0 0.67 0 0.34 0 0 Z " fill="#A8FBFD" transform="translate(334,168)"/>
<path d="M0 0 C0.33 0 0.66 0 1 0 C1 39.27 1 78.54 1 119 C-0.485 119.495 -0.485 119.495 -2 120 C-2.10205755 88.55910171 -2.14437243 57.12438264 -1.5625 25.6875 C-1.54285187 24.54608551 -1.52320374 23.40467102 -1.50296021 22.22866821 C-1.44651206 19.03120712 -1.38302329 15.83398236 -1.31640625 12.63671875 C-1.29968872 11.69597504 -1.28297119 10.75523132 -1.26574707 9.78598022 C-1.24580688 8.92936798 -1.2258667 8.07275574 -1.20532227 7.19018555 C-1.18977798 6.44834518 -1.1742337 5.70650482 -1.15821838 4.94218445 C-1 3 -1 3 0 0 Z " fill="#A4FAFC" transform="translate(434,178)"/>
<path d="M0 0 C33.66 0 67.32 0 102 0 C102 0.33 102 0.66 102 1 C82.27962603 1.7639351 62.56612664 2.26204814 42.83374023 2.55761719 C39.10304288 2.61373747 35.37251271 2.67745923 31.64196682 2.74279213 C28.72613205 2.79273097 25.81023775 2.83787569 22.89430428 2.88163376 C21.51599446 2.9030638 20.13770984 2.92618833 18.75945854 2.9510994 C16.85721871 2.98496498 14.95485186 3.0114542 13.05249023 3.03759766 C11.43829445 3.06305161 11.43829445 3.06305161 9.79148865 3.08901978 C7.33731737 3.01075695 5.33577433 2.71676917 3 2 C3.01571045 2.89307861 3.0314209 3.78615723 3.04760742 4.70629883 C3.09875439 8.02178756 3.13635812 11.33685675 3.16479492 14.65258789 C3.17987589 16.08722552 3.2003438 17.52181708 3.22631836 18.95629883 C3.26273437 21.01915859 3.27973243 23.08140858 3.29296875 25.14453125 C3.3086792 26.38565674 3.32438965 27.62678223 3.34057617 28.90551758 C3 32 3 32 0 35 C0 23.45 0 11.9 0 0 Z " fill="#B7FFFF" transform="translate(330,135)"/>
<path d="M0 0 C34.32 0 68.64 0 104 0 C105.49360682 40.32738412 105.49360682 40.32738412 103 47 C102.67 47 102.34 47 102 47 C102 32.48 102 17.96 102 3 C92.1 3 82.2 3 72 3 C72 2.67 72 2.34 72 2 C48.24 1.67 24.48 1.34 0 1 C0 0.67 0 0.34 0 0 Z " fill="#87E0E2" transform="translate(331,134)"/>
<path d="M0 0 C3.25 0 3.25 0 7 1 C10.42047413 6.90438987 12.8103607 13.26386642 15.25 19.625 C15.61351562 20.54023438 15.97703125 21.45546875 16.3515625 22.3984375 C18.14965803 27.07618979 19.50851597 30.89788975 19 36 C18.67 35.34 18.34 34.68 18 34 C-5.43 34 -28.86 34 -53 34 C-53 33.67 -53 33.34 -53 33 C-30.89 32.67 -8.78 32.34 14 32 C10.7 23.09 7.4 14.18 4 5 C1.69 4.67 -0.62 4.34 -3 4 C-1.68 3.34 -0.36 2.68 1 2 C0.505 1.01 0.505 1.01 0 0 Z " fill="#54E3E7" transform="translate(187,274)"/>
<path d="M0 0 C1.14250465 0.00333092 1.14250465 0.00333092 2.30809021 0.00672913 C3.16890701 0.00680466 4.02972382 0.00688019 4.91662598 0.00695801 C5.8520372 0.01211929 6.78744843 0.01728058 7.75120544 0.02259827 C8.70422043 0.02401321 9.65723541 0.02542816 10.63912964 0.02688599 C13.69605085 0.032503 16.75289996 0.04505836 19.80979919 0.05775452 C21.87685543 0.06276733 23.94391281 0.06733061 26.01097107 0.07142639 C31.08977507 0.08247795 36.16852489 0.09975397 41.24729919 0.12025452 C41.9050821 1.39433556 42.55815127 2.67085098 43.20921326 3.94837952 C43.7554837 5.01427307 43.7554837 5.01427307 44.31278992 6.10169983 C45.4068741 8.46493881 45.83513615 10.52564575 45.99729919 13.12025452 C46.05401794 13.88337952 46.11073669 14.64650452 46.16917419 15.43275452 C46.19495544 15.98962952 46.22073669 16.54650452 46.24729919 17.12025452 C45.25729919 16.79025452 44.26729919 16.46025452 43.24729919 16.12025452 C42.29808044 13.94056702 42.29808044 13.94056702 41.55979919 11.24525452 C41.30843201 10.36095764 41.05706482 9.47666077 40.79808044 8.56556702 C40.24729919 6.12025452 40.24729919 6.12025452 40.24729919 3.12025452 C34.58686482 3.18896938 28.92718069 3.27685515 23.26731873 3.38270569 C21.34097088 3.41600821 19.4145242 3.44402341 17.48802185 3.46669006 C14.7224557 3.50013875 11.95779967 3.55244788 9.19261169 3.60853577 C7.89566879 3.61812065 7.89566879 3.61812065 6.57252502 3.62789917 C3.89466257 3.65945504 3.89466257 3.65945504 0.24729919 4.12025452 C-0.74270081 5.60525452 -0.74270081 5.60525452 -1.75270081 7.12025452 C-2.41270081 7.12025452 -3.07270081 7.12025452 -3.75270081 7.12025452 C-2.72003244 0.18662409 -2.72003244 0.18662409 0 0 Z " fill="#99E8E9" transform="translate(169.75270080566406,124.87974548339844)"/>
<path d="M0 0 C12.69603076 -0.1637024 25.32273538 0.34089443 38 1 C38.495 2.485 38.495 2.485 39 4 C25.59584157 7.68861362 12.37323509 7.67534841 0 1 C0 0.67 0 0.34 0 0 Z " fill="#ACF6F7" transform="translate(325,325)"/>
<path d="M0 0 C1.14807129 0.05873291 1.14807129 0.05873291 2.31933594 0.11865234 C6.12640063 0.33799978 9.78531043 0.68542052 13.5 1.5625 C13.5 1.8925 13.5 2.2225 13.5 2.5625 C7.46416332 3.31927085 1.60615896 3.70128273 -4.47265625 3.66015625 C-5.28117538 3.6587413 -6.08969452 3.65732635 -6.92271423 3.65586853 C-9.46934942 3.65033414 -12.01589203 3.6377946 -14.5625 3.625 C-16.30403518 3.6199765 -18.04557175 3.61541509 -19.78710938 3.61132812 C-24.02477448 3.60038634 -28.26237163 3.58316826 -32.5 3.5625 C-23.9446788 -3.29140064 -10.37761384 -0.54563581 0 0 Z " fill="#A8F7F8" transform="translate(179.5,274.4375)"/>
<path d="M0 0 C1.2065625 0.0309375 1.2065625 0.0309375 2.4375 0.0625 C2.55817956 15.10102979 2.3767609 30.05109814 1.4375 45.0625 C1.1075 45.0625 0.7775 45.0625 0.4375 45.0625 C0.3873877 44.22702637 0.33727539 43.39155273 0.28564453 42.53076172 C0.09258914 39.35826189 -0.10565043 36.18613536 -0.30712891 33.01416016 C-0.43386788 30.9953555 -0.5549088 28.97619565 -0.67578125 26.95703125 C-1.17906821 19.09801181 -1.99236337 11.4334565 -3.26220703 3.66455078 C-3.36130371 2.80587402 -3.46040039 1.94719727 -3.5625 1.0625 C-2.5625 0.0625 -2.5625 0.0625 0 0 Z " fill="#10CBDC" transform="translate(429.5625,137.9375)"/>
<path d="M0 0 C1.65 0 3.3 0 5 0 C5.99 2.97 6.98 5.94 8 9 C7.34 8.67 6.68 8.34 6 8 C6 7.01 6 6.02 6 5 C5.34 5 4.68 5 4 5 C4.33 6.98 4.66 8.96 5 11 C4.01 9.68 3.02 8.36 2 7 C1.5875 8.134375 1.175 9.26875 0.75 10.4375 C-0.97347498 15.0471771 -2.95871274 19.52367464 -5 24 C-5.33 23.01 -5.66 22.02 -6 21 C-6.66 21 -7.32 21 -8 21 C-6.033631 13.63011293 -3.30417422 6.86954798 0 0 Z " fill="#86EDEF" transform="translate(184,179)"/>
<path d="M0 0 C0.99 0 1.98 0 3 0 C3 1.98 3 3.96 3 6 C-12.51 6 -28.02 6 -44 6 C-44.33 5.01 -44.66 4.02 -45 3 C-30.15 3.33 -15.3 3.66 0 4 C0 2.68 0 1.36 0 0 Z " fill="#AFF5F7" transform="translate(302,360)"/>
<path d="M0 0 C16.335 0.495 16.335 0.495 33 1 C33 1.33 33 1.66 33 2 C28.75038214 2.19694005 24.50029973 2.38092074 20.25 2.5625 C19.0434375 2.61857422 17.836875 2.67464844 16.59375 2.73242188 C14.85351562 2.80493164 14.85351562 2.80493164 13.078125 2.87890625 C11.47565918 2.94960327 11.47565918 2.94960327 9.84082031 3.02172852 C7.33305593 3.00254744 5.37796573 2.74499559 3 2 C3.01571045 2.89307861 3.0314209 3.78615723 3.04760742 4.70629883 C3.09875439 8.02178756 3.13635812 11.33685675 3.16479492 14.65258789 C3.17987589 16.08722552 3.2003438 17.52181708 3.22631836 18.95629883 C3.26273437 21.01915859 3.27973243 23.08140858 3.29296875 25.14453125 C3.3086792 26.38565674 3.32438965 27.62678223 3.34057617 28.90551758 C3 32 3 32 0 35 C0 23.45 0 11.9 0 0 Z " fill="#A2F5F7" transform="translate(330,135)"/>
<path d="M0 0 C2.97 0.495 2.97 0.495 6 1 C5.34 1.66 4.68 2.32 4 3 C3.01 3 2.02 3 1 3 C1.08378906 3.6084375 1.16757812 4.216875 1.25390625 4.84375 C2.27813811 13.65992298 1.57964134 20.7257385 1 30 C19.15 30 37.3 30 56 30 C56 30.33 56 30.66 56 31 C37.52 31 19.04 31 0 31 C0 20.77 0 10.54 0 0 Z " fill="#50E0E2" transform="translate(333,137)"/>
<path d="M0 0 C0.66 0 1.32 0 2 0 C2 22.11 2 44.22 2 67 C1.67 67 1.34 67 1 67 C0.96241577 65.29070312 0.96241577 65.29070312 0.92407227 63.546875 C0.8293896 59.29010147 0.72932134 55.03346818 0.62768555 50.77685547 C0.58456553 48.93997495 0.54287594 47.10306024 0.50268555 45.26611328 C0.44442293 42.61480436 0.38089461 39.96366394 0.31640625 37.3125 C0.29969376 36.50071289 0.28298126 35.68892578 0.26576233 34.85253906 C0.17011288 31.1109819 -0.02786601 27.45118412 -0.52734375 23.74023438 C-0.91771423 20.65114564 -1.06192281 17.93469638 -0.87890625 14.84375 C-0.83056641 13.9671875 -0.78222656 13.090625 -0.73242188 12.1875 C-0.67634766 11.300625 -0.62027344 10.41375 -0.5625 9.5 C-0.51029297 8.5821875 -0.45808594 7.664375 -0.40429688 6.71875 C-0.2759611 4.47870739 -0.14107403 2.23927025 0 0 Z " fill="#78F0FA" transform="translate(431,163)"/>
<path d="M0 0 C0.66 0 1.32 0 2 0 C2.33 0.99 2.66 1.98 3 3 C3.66 3.33 4.32 3.66 5 4 C8.34312406 10.89899239 10.75414949 17.30767518 10 25 C9.34 25.33 8.68 25.66 8 26 C6.84240217 23.17098808 5.69884999 20.33753932 4.5625 17.5 C4.23701172 16.70851562 3.91152344 15.91703125 3.57617188 15.1015625 C1.55065267 10.00644204 0.44528248 5.46882143 0 0 Z " fill="#8DECEF" transform="translate(188,184)"/>
<path d="M0 0 C2.95183101 2.95183101 3.08663988 5.95511947 4 10 C3.34 10 2.68 10 2 10 C2 11.32 2 12.64 2 14 C-11.37670177 14.10890351 -24.66119695 14.09848966 -38 13 C-38 12.67 -38 12.34 -38 12 C-25.46 12 -12.92 12 0 12 C0 8.04 0 4.08 0 0 Z " fill="#74F0F5" transform="translate(300,350)"/>
<path d="M0 0 C0.99 0.33 1.98 0.66 3 1 C5.94717173 1.15434158 8.87498865 1.2575603 11.82421875 1.31640625 C12.68561966 1.33718735 13.54702057 1.35796844 14.43452454 1.37937927 C17.18543544 1.44474909 19.93644156 1.50370132 22.6875 1.5625 C24.55274421 1.60569717 26.4179788 1.64931185 28.28320312 1.69335938 C32.85537124 1.80041763 37.4276351 1.90172054 42 2 C41.67 2.66 41.34 3.32 41 4 C27.8 4 14.6 4 1 4 C0.67 2.68 0.34 1.36 0 0 Z " fill="#B6FAFC" transform="translate(62,362)"/>
<path d="M0 0 C18.48 0 36.96 0 56 0 C56 1.98 56 3.96 56 6 C55.34 6 54.68 6 54 6 C54 5.01 54 4.02 54 3 C52.1746875 3.2784375 52.1746875 3.2784375 50.3125 3.5625 C46.97022061 3.98993182 44.28031583 3.92258883 41 3 C41 2.67 41 2.34 41 2 C20.705 1.505 20.705 1.505 0 1 C0 0.67 0 0.34 0 0 Z " fill="#A4FBFC" transform="translate(334,168)"/>
<path d="M0 0 C3.58331625 -0.02907084 7.16660208 -0.04682263 10.75 -0.0625 C11.76578125 -0.07087891 12.7815625 -0.07925781 13.828125 -0.08789062 C14.8078125 -0.09111328 15.7875 -0.09433594 16.796875 -0.09765625 C17.69760742 -0.10289307 18.59833984 -0.10812988 19.52636719 -0.11352539 C21.83389804 -0.00762312 23.79134405 0.34867187 26 1 C26 1.66 26 2.32 26 3 C22.22931168 3.086985 18.45888068 3.14038579 14.6875 3.1875 C13.61564453 3.21263672 12.54378906 3.23777344 11.43945312 3.26367188 C10.41142578 3.27333984 9.38339844 3.28300781 8.32421875 3.29296875 C7.37635498 3.3086792 6.42849121 3.32438965 5.4519043 3.34057617 C2.60228592 2.94475643 1.75023895 2.22175281 0 0 Z " fill="#A3F1F3" transform="translate(340,365)"/>
<path d="M0 0 C7.875 0.875 7.875 0.875 9 2 C15.51334694 3.08809417 21.90937597 3.11871923 28.5 3.0625 C30.01980469 3.05573242 30.01980469 3.05573242 31.5703125 3.04882812 C34.04693827 3.03714593 36.52343657 3.02076582 39 3 C33.58822872 5.89682954 28.0447057 5.69181107 22 6 C20.68708984 6.11601562 20.68708984 6.11601562 19.34765625 6.234375 C12.09830572 6.65735169 6.4571839 4.10654895 0 1 C0 0.67 0 0.34 0 0 Z " fill="#5BF5F8" transform="translate(325,325)"/>
<path d="M0 0 C3.25 0 3.25 0 7 1 C9.62944766 4.3796359 11 7.7255887 11 12 C9.68 12 8.36 12 7 12 C6.649375 10.865625 6.29875 9.73125 5.9375 8.5625 C5.20614319 6.60694436 5.20614319 6.60694436 4 5 C0.41136476 3.9384058 0.41136476 3.9384058 -3 4 C-1.68 3.34 -0.36 2.68 1 2 C0.67 1.34 0.34 0.68 0 0 Z " fill="#8AE5E6" transform="translate(187,274)"/>
<path d="M0 0 C0.28773432 4.79077635 -0.55830025 8.00617556 -2.5 12.375 C-2.9640625 13.43460938 -3.428125 14.49421875 -3.90625 15.5859375 C-4.2671875 16.38257813 -4.628125 17.17921875 -5 18 C-5.99 18 -6.98 18 -8 18 C-6.96720627 11.96119429 -5.79810045 6.47961337 -3 1 C-1 0 -1 0 0 0 Z " fill="#9EF1F4" transform="translate(128,218)"/>
<path d="M0 0 C0.33 0 0.66 0 1 0 C0.57664615 6.49142565 -1.91099799 11.33492989 -5 17 C-5.66 17 -6.32 17 -7 17 C-5.99523505 10.3103807 -4.93080426 4.93080426 0 0 Z " fill="#98F4F5" transform="translate(153,161)"/>
<path d="M0 0 C1.6874269 0.00015917 3.37485866 0.00585622 5.06225586 0.01586914 C6.39189613 0.01799156 6.39189613 0.01799156 7.74839783 0.02015686 C10.59133215 0.02577324 13.43418892 0.03832848 16.27709961 0.05102539 C18.19962452 0.05603828 20.12215065 0.06060155 22.04467773 0.06469727 C26.7680151 0.07574798 31.49129419 0.09302356 36.21459961 0.11352539 C36.70959961 3.08352539 36.70959961 3.08352539 37.21459961 6.11352539 C36.55459961 4.79352539 35.89459961 3.47352539 35.21459961 2.11352539 C30.44572323 2.08877475 25.6768844 2.07064136 20.90795898 2.05859375 C19.28620757 2.05357034 17.66446066 2.04675045 16.04272461 2.03808594 C13.70937992 2.0259331 11.37609521 2.02027711 9.04272461 2.01586914 C8.31966125 2.01070786 7.5965979 2.00554657 6.85162354 2.00022888 C4.07185662 1.9999203 1.5470336 2.02478707 -1.1496582 2.74462891 C-1.68945312 2.86636475 -2.22924805 2.98810059 -2.78540039 3.11352539 C-3.44540039 2.45352539 -4.10540039 1.79352539 -4.78540039 1.11352539 C-3.78540039 0.11352539 -3.78540039 0.11352539 0 0 Z " fill="#81FDFD" transform="translate(173.785400390625,127.886474609375)"/>
<path d="M0 0 C0.99 0.33 1.98 0.66 3 1 C0.60637464 5.08324326 -2.59303083 6.6813793 -7 8 C-9.67738108 8.48679656 -12.28344555 8.76170575 -15 9 C-14.67 8.01 -14.34 7.02 -14 6 C-11.09375 4.6484375 -11.09375 4.6484375 -7.5 3.375 C-3.45739657 2.19881204 -3.45739657 2.19881204 0 0 Z " fill="#9AF0F3" transform="translate(394,356)"/>
<path d="M0 0 C0.99 0 1.98 0 3 0 C5.03993514 4.92984325 6.40652968 8.57960425 6 14 C5.67 13.34 5.34 12.68 5 12 C2.69 12 0.38 12 -2 12 C-1.01 11.34 -0.02 10.68 1 10 C0.67 6.7 0.34 3.4 0 0 Z " fill="#8AECEE" transform="translate(200,296)"/>
<path d="M0 0 C0.99 0.33 1.98 0.66 3 1 C3.0544452 3.20805524 3.09299283 5.41650554 3.125 7.625 C3.14820313 8.85476562 3.17140625 10.08453125 3.1953125 11.3515625 C3.0030428 14.94316041 2.30258556 17.66661175 1 21 C0.67 21 0.34 21 0 21 C0 14.07 0 7.14 0 0 Z " fill="#84FEFF" transform="translate(433,160)"/>
<path d="M0 0 C2.50385568 1.07308101 3.90097903 1.87622378 5.625 4.03125 C8.93949214 6.77878954 12.12283194 6.66979002 16.25 6.75 C16.99507813 6.77964844 17.74015625 6.80929687 18.5078125 6.83984375 C20.33796672 6.9102343 22.16898769 6.95741832 24 7 C24 7.33 24 7.66 24 8 C17.4 8 10.8 8 4 8 C3.67 8.66 3.34 9.32 3 10 C0.96564469 6.27034861 0 4.33094958 0 0 Z " fill="#95F3F5" transform="translate(254,356)"/>
<path d="M0 0 C0.33 0.66 0.66 1.32 1 2 C2.32 1.67 3.64 1.34 5 1 C7.48063781 10.41002278 7.48063781 10.41002278 6 15 C3.75848118 12.75848118 3.03698675 10.9932888 1.875 8.0625 C1.52179688 7.18722656 1.16859375 6.31195313 0.8046875 5.41015625 C0 3 0 3 0 0 Z " fill="#85F6F7" transform="translate(294,344)"/>
<path d="M0 0 C0.33 0.99 0.66 1.98 1 3 C1.66 3 2.32 3 3 3 C2.55090939 4.48199902 2.09043436 5.96055236 1.625 7.4375 C1.36976563 8.26121094 1.11453125 9.08492188 0.8515625 9.93359375 C0 12 0 12 -2 13 C-2.33 12.34 -2.66 11.68 -3 11 C-3.99 12.32 -4.98 13.64 -6 15 C-6.66 14.67 -7.32 14.34 -8 14 C-7.59007812 13.40832031 -7.18015625 12.81664062 -6.7578125 12.20703125 C-5.94957031 11.02173828 -5.94957031 11.02173828 -5.125 9.8125 C-4.59132813 9.03519531 -4.05765625 8.25789063 -3.5078125 7.45703125 C-2.01984561 5.0323391 -0.97571922 2.6666501 0 0 Z " fill="#7DE5E7" transform="translate(383,302)"/>
<path d="M0 0 C1.65 0 3.3 0 5 0 C5.99 2.97 6.98 5.94 8 9 C7.34 8.67 6.68 8.34 6 8 C6 7.01 6 6.02 6 5 C5.34 5 4.68 5 4 5 C4.33 6.98 4.66 8.96 5 11 C3 8 3 8 2 6 C1.01 5.67 0.02 5.34 -1 5 C-1.33 5.66 -1.66 6.32 -2 7 C-1.125 2.25 -1.125 2.25 0 0 Z " fill="#6FE5E8" transform="translate(184,179)"/>
<path d="M0 0 C2.99759932 1.49879966 3.30788674 3.80308864 4.40234375 6.85546875 C5.17376071 9.6234943 5.21405269 12.1459642 5 15 C4.01 14.67 3.02 14.34 2 14 C1.015625 11.85546875 1.015625 11.85546875 0.25 9.1875 C-0.01296875 8.31480469 -0.2759375 7.44210938 -0.546875 6.54296875 C-1.00968292 3.94565881 -0.85082224 2.46623472 0 0 Z " fill="#93EAEE" transform="translate(211,127)"/>
<path d="M0 0 C0.66 0 1.32 0 2 0 C2 0.99 2 1.98 2 3 C2.99 2.67 3.98 2.34 5 2 C6.49821059 5.37097383 7 7.20442119 7 11 C6.34 11 5.68 11 5 11 C5.33 12.32 5.66 13.64 6 15 C3.22165316 13.61082658 3.00357014 12.04236447 1.875 9.1875 C1.52179688 8.31480469 1.16859375 7.44210938 0.8046875 6.54296875 C0 4 0 4 0 0 Z " fill="#85EAEB" transform="translate(212,248)"/>
<path d="M0 0 C2 1 2 1 2.8515625 3.28515625 C3.10679687 4.20167969 3.36203125 5.11820313 3.625 6.0625 C3.88539063 6.98160156 4.14578125 7.90070313 4.4140625 8.84765625 C4.60742188 9.55792969 4.80078125 10.26820313 5 11 C4.34 11 3.68 11 3 11 C2.67 11.99 2.34 12.98 2 14 C1.27273948 12.4252706 0.56879578 10.83975721 -0.125 9.25 C-0.51945313 8.36828125 -0.91390625 7.4865625 -1.3203125 6.578125 C-2 4 -2 4 -1.1171875 1.671875 C-0.74851563 1.12015625 -0.37984375 0.5684375 0 0 Z " fill="#84EBEE" transform="translate(254,235)"/>
<path d="M0 0 C2.11386464 2.11386464 2.97008322 3.79267603 4.1875 6.5 C4.55230469 7.2940625 4.91710937 8.088125 5.29296875 8.90625 C5.52628906 9.5971875 5.75960938 10.288125 6 11 C5.67 11.66 5.34 12.32 5 13 C4.01 12.34 3.02 11.68 2 11 C1.67 11.66 1.34 12.32 1 13 C0.01 9.7 -0.98 6.4 -2 3 C-1.34 3 -0.68 3 0 3 C0 2.01 0 1.02 0 0 Z " fill="#81EBED" transform="translate(252,345)"/>
<path d="M0 0 C4.97631579 4.81578947 4.97631579 4.81578947 5.0625 9.125 C5.041875 10.07375 5.02125 11.0225 5 12 C4.01 12 3.02 12 2 12 C1.46809459 10.56656 0.94984742 9.12804633 0.4375 7.6875 C0.14746094 6.88699219 -0.14257812 6.08648437 -0.44140625 5.26171875 C-1 3 -1 3 0 0 Z " fill="#97F6F7" transform="translate(223,160)"/>
<path d="M0 0 C0.99 0 1.98 0 3 0 C3.56561146 5.65611463 1.71391278 9.22642128 -1 14 C-3 11 -3 11 -2.5390625 8.30078125 C-2.23742187 7.31464844 -1.93578125 6.32851562 -1.625 5.3125 C-1.32851562 4.31863281 -1.03203125 3.32476562 -0.7265625 2.30078125 C-0.48679688 1.54152344 -0.24703125 0.78226563 0 0 Z " fill="#9BEDF0" transform="translate(175,200)"/>
<path d="M0 0 C0.99 0.99 1.98 1.98 3 3 C2.01 5.97 1.02 8.94 0 12 C-1.32 11.67 -2.64 11.34 -4 11 C-3.52269162 9.5410574 -3.04308958 8.08286504 -2.5625 6.625 C-2.29566406 5.81289063 -2.02882813 5.00078125 -1.75390625 4.1640625 C-1 2 -1 2 0 0 Z " fill="#82EDEE" transform="translate(115,347)"/>
<path d="M0 0 C0.33 0.66 0.66 1.32 1 2 C1.99 2.33 2.98 2.66 4 3 C-0.455 5.97 -0.455 5.97 -5 9 C-5.66 8.67 -6.32 8.34 -7 8 C-6.875 6.25 -6.875 6.25 -6 4 C-2.9375 1.75 -2.9375 1.75 0 0 Z " fill="#81E9EC" transform="translate(403,350)"/>
<path d="M0 0 C1.875 0.9375 1.875 0.9375 4 3 C4.95351561 5.95485056 5.51196718 8.9369519 6 12 C5.01 12 4.02 12 3 12 C0.58314288 7.77050005 -0.34833144 4.87664009 0 0 Z " fill="#9BF1F3" transform="translate(232,297)"/>
<path d="M0 0 C0.93065133 2.60582371 1.14917407 3.64198224 0.0625 6.25 C-0.4634375 7.11625 -0.4634375 7.11625 -1 8 C-0.34 8 0.32 8 1 8 C-0.75 13.75 -0.75 13.75 -3 16 C-3 15.01 -3 14.02 -3 13 C-3.66 13 -4.32 13 -5 13 C-4.54554036 11.58208592 -4.08625056 10.16571954 -3.625 8.75 C-3.24214844 7.56664062 -3.24214844 7.56664062 -2.8515625 6.359375 C-2.04826333 4.13372042 -1.10288338 2.09068328 0 0 Z " fill="#86E9EB" transform="translate(121,228)"/>
<path d="M0 0 C1.65 0 3.3 0 5 0 C5 8.25 5 16.5 5 25 C4.67 25 4.34 25 4 25 C4 17.08 4 9.16 4 1 C3.34 1 2.68 1 2 1 C2 1.99 2 2.98 2 4 C1.34 4 0.68 4 0 4 C-0.33 3.01 -0.66 2.02 -1 1 C-0.67 0.67 -0.34 0.34 0 0 Z " fill="#26DEEB" transform="translate(427,138)"/>
<path d="M0 0 C2 1 2 1 2.8515625 3.28515625 C3.10679687 4.20167969 3.36203125 5.11820312 3.625 6.0625 C3.88539063 6.98160156 4.14578125 7.90070313 4.4140625 8.84765625 C4.60742188 9.55792969 4.80078125 10.26820313 5 11 C4.34 10.67 3.68 10.34 3 10 C2.34 10.66 1.68 11.32 1 12 C0.01 9.03 -0.98 6.06 -2 3 C-1.34 2.67 -0.68 2.34 0 2 C0 1.34 0 0.68 0 0 Z " fill="#7AE9EE" transform="translate(284,311)"/>
<path d="M0 0 C3 2 3 2 3.73046875 4.6015625 C3.88128906 5.59929687 4.03210938 6.59703125 4.1875 7.625 C4.34605469 8.62789063 4.50460937 9.63078125 4.66796875 10.6640625 C4.77753906 11.43492187 4.88710938 12.20578125 5 13 C2 12 2 12 1.015625 10.29296875 C0.76296875 9.59816406 0.5103125 8.90335937 0.25 8.1875 C-0.01296875 7.50042969 -0.2759375 6.81335938 -0.546875 6.10546875 C-1.06056958 3.71856031 -0.76282269 2.29362227 0 0 Z " fill="#9AF7F8" transform="translate(265,265)"/>
<path d="M0 0 C0.99 0.33 1.98 0.66 3 1 C3.765625 2.7421875 3.765625 2.7421875 4.25 4.875 C4.50523437 5.92300781 4.50523437 5.92300781 4.765625 6.9921875 C5 9 5 9 4 12 C4 11.34 4 10.68 4 10 C3.01 9.67 2.02 9.34 1 9 C0.67 6.03 0.34 3.06 0 0 Z " fill="#A0F6F6" transform="translate(280,304)"/>
<path d="M0 0 C2 1 2 1 2.73828125 2.70703125 C4.3038674 8.44751381 4.3038674 8.44751381 2.625 11.5 C2.08875 11.995 1.5525 12.49 1 13 C-1.48887372 8.31506124 -0.85687773 5.0555786 0 0 Z " fill="#7FE9EB" transform="translate(198,205)"/>
<path d="M0 0 C1.73662334 3.22515763 2.8905928 6.51329166 4 10 C3.01 9.67 2.02 9.34 1 9 C0.67 9.99 0.34 10.98 0 12 C-3.125 5.375 -3.125 5.375 -2 2 C-1.67 2.33 -1.34 2.66 -1 3 C-0.67 2.01 -0.34 1.02 0 0 Z " fill="#7CEAEC" transform="translate(238,193)"/>
<path d="M0 0 C2.73684211 4.10526316 2.73684211 4.10526316 3 7 C2.01 8.32 1.02 9.64 0 11 C-0.99 7.7 -1.98 4.4 -3 1 C-2.01 0.67 -1.02 0.34 0 0 Z " fill="#83E3E6" transform="translate(238,308)"/>
<path d="M0 0 C4.95 0 9.9 0 15 0 C15 0.33 15 0.66 15 1 C14.15695313 1.10957031 13.31390625 1.21914062 12.4453125 1.33203125 C11.34960938 1.49058594 10.25390625 1.64914063 9.125 1.8125 C7.48917969 2.03873047 7.48917969 2.03873047 5.8203125 2.26953125 C2.68761154 2.74665741 2.68761154 2.74665741 1 6 C0.34 6 -0.32 6 -1 6 C-0.67 4.02 -0.34 2.04 0 0 Z " fill="#BEF8F8" transform="translate(167,126)"/>
<path d="M0 0 C7.60344828 0.60344828 7.60344828 0.60344828 10 3 C9.01 3.33 8.02 3.66 7 4 C6.34 3.67 5.68 3.34 5 3 C1.9254644 3.7763932 1.9254644 3.7763932 0 6 C-0.38218767 4.34385343 -0.71395102 2.67542976 -1 1 C-0.67 0.67 -0.34 0.34 0 0 Z " fill="#96E0E1" transform="translate(316,319)"/>
<path d="M0 0 C2.95183101 2.95183101 3.08663988 5.95511947 4 10 C3.01 10 2.02 10 1 10 C1 10.99 1 11.98 1 13 C-0.65 13 -2.3 13 -4 13 C-2.68 12.67 -1.36 12.34 0 12 C0 8.04 0 4.08 0 0 Z " fill="#74E9EA" transform="translate(300,350)"/>
<path d="M0 0 C0.33 0 0.66 0 1 0 C1 2.64 1 5.28 1 8 C1.66 8 2.32 8 3 8 C2.25 13.75 2.25 13.75 0 16 C-0.91397824 10.31302429 -0.91397824 5.68697571 0 0 Z " fill="#8FF6F8" transform="translate(431,290)"/>
<path d="M0 0 C1.96301592 3.50538557 2.95902388 7.13351728 4 11 C3.34 10.67 2.68 10.34 2 10 C1.34 10.66 0.68 11.32 0 12 C-0.99 9.03 -1.98 6.06 -3 3 C-2.34 3 -1.68 3 -1 3 C-0.67 2.01 -0.34 1.02 0 0 Z " fill="#76E2E5" transform="translate(231,289)"/>
<path d="M0 0 C0.33 0.66 0.66 1.32 1 2 C1.99 1.67 2.98 1.34 4 1 C3.01 3.97 2.02 6.94 1 10 C0.01 9.34 -0.98 8.68 -2 8 C-1.47731534 5.23723823 -0.89130413 2.6739124 0 0 Z " fill="#88E8EC" transform="translate(166,220)"/>
<path d="M0 0 C0.66 0.66 1.32 1.32 2 2 C1.53846154 8.46153846 1.53846154 8.46153846 -1 11 C-1 10.01 -1 9.02 -1 8 C-1.66 8 -2.32 8 -3 8 C-1.125 2.25 -1.125 2.25 0 0 Z " fill="#8FE8EC" transform="translate(83,313)"/>
<path d="M0 0 C0.33 0.66 0.66 1.32 1 2 C0.67 2.99 0.34 3.98 0 5 C2.97 5 5.94 5 9 5 C9 5.33 9 5.66 9 6 C4.32790951 7.43023178 -0.13103697 8.40380045 -5 9 C-4.01 8.34 -3.02 7.68 -2 7 C-0.7811879 3.44327821 -0.7811879 3.44327821 0 0 Z " fill="#75D5D5" transform="translate(148,269)"/>
<path d="M0 0 C0.33 1.32 0.66 2.64 1 4 C1.66 4.33 2.32 4.66 3 5 C2.01 7.31 1.02 9.62 0 12 C-0.99 11.01 -1.98 10.02 -3 9 C-2.01 6.03 -1.02 3.06 0 0 Z " fill="#87E4E9" transform="translate(129,210)"/>
<path d="M0 0 C1.485 0.99 1.485 0.99 3 2 C3.33 1.34 3.66 0.68 4 0 C5.5625 2.8125 5.5625 2.8125 7 6 C6.67 6.99 6.34 7.98 6 9 C5.67 8.34 5.34 7.68 5 7 C4.34 7.66 3.68 8.32 3 9 C0 2.25 0 2.25 0 0 Z " fill="#79E8EB" transform="translate(219,154)"/>
<path d="M0 0 C-0.33 2.97 -0.66 5.94 -1 9 C-1.99 9 -2.98 9 -4 9 C-4.368 3.48 -4.368 3.48 -2.5625 1.125 C-1 0 -1 0 0 0 Z " fill="#A0F2F7" transform="translate(78,329)"/>
<path d="M0 0 C1.79378179 2.69067269 2.97313958 5.08578257 4.1875 8.0625 C4.55230469 8.94035156 4.91710937 9.81820313 5.29296875 10.72265625 C6 13 6 13 5 15 C4.67 13.68 4.34 12.36 4 11 C3.34 11 2.68 11 2 11 C1.67 11.66 1.34 12.32 1 13 C0.67 11.68 0.34 10.36 0 9 C0.66 9 1.32 9 2 9 C1.67 8.2575 1.34 7.515 1 6.75 C0 4 0 4 0 0 Z " fill="#76D6D8" transform="translate(268,269)"/>
<path d="M0 0 C0.33 0 0.66 0 1 0 C0.125 7.625 0.125 7.625 -1 11 C-1.99 11 -2.98 11 -4 11 C-3.67 8.69 -3.34 6.38 -3 4 C-2.01 3.67 -1.02 3.34 0 3 C0 2.01 0 1.02 0 0 Z " fill="#ABFBFC" transform="translate(140,189)"/>
<path d="M0 0 C0.66 1.32 1.32 2.64 2 4 C1.34 4 0.68 4 0 4 C0 4.99 0 5.98 0 7 C0.99 7.33 1.98 7.66 3 8 C2.34 9.32 1.68 10.64 1 12 C-0.32 8.7 -1.64 5.4 -3 2 C-2.34 2 -1.68 2 -1 2 C-0.67 1.34 -0.34 0.68 0 0 Z " fill="#74E2E8" transform="translate(322,330)"/>
<path d="M0 0 C0.99 0 1.98 0 3 0 C2.25 6.625 2.25 6.625 0 10 C-1.125 3.375 -1.125 3.375 0 0 Z " fill="#9CF3F6" transform="translate(85,308)"/>
<path d="M0 0 C0.33 0.66 0.66 1.32 1 2 C1.66 2 2.32 2 3 2 C3 1.34 3 0.68 3 0 C3.99 0.33 4.98 0.66 6 1 C5.34 1 4.68 1 4 1 C3.34 2.98 2.68 4.96 2 7 C1.01 7 0.02 7 -1 7 C-1.99 7.495 -1.99 7.495 -3 8 C-1.125 2.25 -1.125 2.25 0 0 Z " fill="#7EE4E7" transform="translate(165,130)"/>
<path d="M0 0 C0.33 1.32 0.66 2.64 1 4 C-0.4375 6.25 -0.4375 6.25 -2 8 C-3.32 7.67 -4.64 7.34 -6 7 C-4.02 4.69 -2.04 2.38 0 0 Z " fill="#A1F8F9" transform="translate(380,312)"/>
<path d="M0 0 C0.66 0 1.32 0 2 0 C1.4739075 3.78786597 0.61896089 6.17152224 -2 9 C-2.66 9 -3.32 9 -4 9 C-2.25 2.25 -2.25 2.25 0 0 Z " fill="#8DF5F7" transform="translate(132,310)"/>
<path d="M0 0 C-0.33 2.64 -0.66 5.28 -1 8 C-1.99 8 -2.98 8 -4 8 C-4.1875 5.125 -4.1875 5.125 -4 2 C-1 0 -1 0 0 0 Z " fill="#96F4F6" transform="translate(106,268)"/>
<path d="M0 0 C2.61627165 2.61627165 2.77669287 4.35265021 3 8 C1.5625 9.875 1.5625 9.875 0 11 C-0.66 8.69 -1.32 6.38 -2 4 C-1.34 4 -0.68 4 0 4 C0 2.68 0 1.36 0 0 Z " fill="#77E6E8" transform="translate(228,168)"/>
<path d="M0 0 C-0.33 2.31 -0.66 4.62 -1 7 C-2.32 7.33 -3.64 7.66 -5 8 C-3.91891892 0 -3.91891892 0 0 0 Z " fill="#A1F8FB" transform="translate(166,135)"/>
<path d="M0 0 C3.317124 4.422832 3.30466674 5.71910976 3 11 C2.01 10.67 1.02 10.34 0 10 C0 6.7 0 3.4 0 0 Z " fill="#8AF7F7" transform="translate(331,352)"/>
<path d="M0 0 C0.99 0.33 1.98 0.66 3 1 C3.66 4.3 4.32 7.6 5 11 C1.87729874 8.48169253 1.05476902 7.2738451 0.25 3.25 C0.1675 2.1775 0.085 1.105 0 0 Z " fill="#A4F1F1" transform="translate(218,147)"/>
<path d="M0 0 C1.3274855 3.98245651 -0.00092171 6.44789543 -1.4375 10.1875 C-1.80198242 11.16879883 -1.80198242 11.16879883 -2.17382812 12.16992188 C-2.7743293 13.78303286 -3.38609203 15.3919435 -4 17 C-5.6852084 12.92320841 -4.16939007 10.16924407 -2.5625 6.25 C-2.08941406 5.07953125 -1.61632812 3.9090625 -1.12890625 2.703125 C-0.75636719 1.81109375 -0.38382812 0.9190625 0 0 Z " fill="#292929" transform="translate(7,54)"/>
<path d="M0 0 C0.625 1.8125 0.625 1.8125 1 4 C0.01 5.485 0.01 5.485 -1 7 C-1.66 6.67 -2.32 6.34 -3 6 C-2.67 7.32 -2.34 8.64 -2 10 C-2.66 10 -3.32 10 -4 10 C-4.19990835 6.40164967 -3.96808719 4.06146896 -2 1 C-1.34 0.67 -0.68 0.34 0 0 Z " fill="#84CDD0" transform="translate(65,356)"/>
<path d="M0 0 C0.99 0 1.98 0 3 0 C2.25 6.75 2.25 6.75 0 9 C-0.84454356 5.62182575 -1.10844919 3.32534757 0 0 Z " fill="#9DF1F3" transform="translate(97,281)"/>
<path d="M0 0 C0 1.98 0 3.96 0 6 C-1.98 6.99 -1.98 6.99 -4 8 C-4.36780384 3.46375267 -4.36780384 3.46375267 -2.5625 1.1875 C-1 0 -1 0 0 0 Z " fill="#ACF8FB" transform="translate(114,250)"/>
<path d="M0 0 C0.99 0 1.98 0 3 0 C3.22174933 1.45635371 3.42698698 2.91522956 3.625 4.375 C3.74101562 5.18710937 3.85703125 5.99921875 3.9765625 6.8359375 C3.98429687 7.55007813 3.99203125 8.26421875 4 9 C3.34 9.66 2.68 10.32 2 11 C2 8.69 2 6.38 2 4 C1.34 3.67 0.68 3.34 0 3 C0 2.01 0 1.02 0 0 Z " fill="#9BF5F3" transform="translate(322,334)"/>
<path d="M0 0 C0.66 0 1.32 0 2 0 C3.76462683 3.08809695 4 4.23312136 4 8 C3.01 8 2.02 8 1 8 C0.67 5.36 0.34 2.72 0 0 Z " fill="#A0FCFD" transform="translate(270,280)"/>
<path d="M0 0 C2 1.1875 2 1.1875 4 3 C4.25 5.6875 4.25 5.6875 4 8 C3.01 7.67 2.02 7.34 1 7 C0.67 4.69 0.34 2.38 0 0 Z " fill="#A6F5F6" transform="translate(206,230)"/>
<path d="M0 0 C2.18975773 3.28463659 2.99806563 6.20696275 4 10 C3.34 9.67 2.68 9.34 2 9 C1.34 9.66 0.68 10.32 0 11 C-0.33 9.35 -0.66 7.7 -1 6 C-0.34 6 0.32 6 1 6 C0.67 4.02 0.34 2.04 0 0 Z " fill="#77EAEF" transform="translate(205,222)"/>
<path d="M0 0 C0.66 0 1.32 0 2 0 C2.99 2.97 3.98 5.94 5 9 C3.68 8.67 2.36 8.34 1 8 C0.67 5.36 0.34 2.72 0 0 Z " fill="#A6F9FB" transform="translate(188,184)"/>
<path d="M0 0 C2.93200474 2.85276137 5.64315404 5.65079784 8 9 C7.01 9 6.02 9 5 9 C3.61328125 7.5390625 3.61328125 7.5390625 2.3125 5.625 C1.65701172 4.68527344 1.65701172 4.68527344 0.98828125 3.7265625 C0 2 0 2 0 0 Z " fill="#1C1C1C" transform="translate(15,459)"/>
<path d="M0 0 C1.5625 1.1875 1.5625 1.1875 3 3 C2.6875 5.6875 2.6875 5.6875 2 8 C1.01 7.34 0.02 6.68 -1 6 C-0.67 4.02 -0.34 2.04 0 0 Z " fill="#99F5F7" transform="translate(240,315)"/>
<path d="M0 0 C0.66 0.33 1.32 0.66 2 1 C2 2.98 2 4.96 2 7 C1.01 6.67 0.02 6.34 -1 6 C-1.33 4.35 -1.66 2.7 -2 1 C-1.34 0.67 -0.68 0.34 0 0 Z " fill="#9BF6F6" transform="translate(214,135)"/>
<path d="M0 0 C0 3.10551666 -0.5393715 4.35261084 -2 7 C-2.66 7 -3.32 7 -4 7 C-4.33 7.99 -4.66 8.98 -5 10 C-5.66 9.34 -6.32 8.68 -7 8 C-4.69 5.36 -2.38 2.72 0 0 Z " fill="#171717" transform="translate(484,459)"/>
<path d="M0 0 C0.99 0.33 1.98 0.66 3 1 C3.33 2.65 3.66 4.3 4 6 C2.68 6 1.36 6 0 6 C0 4.02 0 2.04 0 0 Z " fill="#9CEFF2" transform="translate(194,280)"/>
<path d="M0 0 C0.66 0 1.32 0 2 0 C1.67 2.64 1.34 5.28 1 8 C0.01 8 -0.98 8 -2 8 C-1.33333333 5.33333333 -0.66666667 2.66666667 0 0 Z " fill="#A3F9FA" transform="translate(122,228)"/>
<path d="M0 0 C0.33 0 0.66 0 1 0 C0.67 2.31 0.34 4.62 0 7 C-0.99 7 -1.98 7 -3 7 C-2.25 2.25 -2.25 2.25 0 0 Z " fill="#A6F9FA" transform="translate(153,161)"/>
<path d="M0 0 C1.9451 2.91765 2.45276317 4.62537285 3 8 C2.67 7.34 2.34 6.68 2 6 C1.34 6 0.68 6 0 6 C-0.33 6.66 -0.66 7.32 -1 8 C-1.33 6.68 -1.66 5.36 -2 4 C-1.34 4 -0.68 4 0 4 C0 2.68 0 1.36 0 0 Z " fill="#6EE1E2" transform="translate(274,284)"/>
<path d="M0 0 C2.35953094 2.35953094 2.49141413 3.77895617 3 7 C2.34 6.67 1.68 6.34 1 6 C0.34 6.66 -0.32 7.32 -1 8 C-1.625 5.6875 -1.625 5.6875 -2 3 C-1.34 2.01 -0.68 1.02 0 0 Z " fill="#80E9EB" transform="translate(226,277)"/>
<path d="M0 0 C2.89932357 2.39509338 3.50168276 4.31245243 4 8 C3.34 8 2.68 8 2 8 C2 7.01 2 6.02 2 5 C1.01 4.67 0.02 4.34 -1 4 C-0.67 2.68 -0.34 1.36 0 0 Z " fill="#97F7FA" transform="translate(201,214)"/>
<path d="M0 0 C2 1 2 1 3.125 3.75 C3.91973395 6.70186896 4.17810598 8.97219837 4 12 C2.09681116 9.14521674 1.5380901 7.58058692 0.875 4.3125 C0.70742188 3.50425781 0.53984375 2.69601562 0.3671875 1.86328125 C0.24601563 1.24839844 0.12484375 0.63351562 0 0 Z " fill="#3C3C3C" transform="translate(2,430)"/>
<path d="M0 0 C1.485 0.99 1.485 0.99 3 2 C3.1875 5.125 3.1875 5.125 3 8 C2.34 8 1.68 8 1 8 C0.67 5.36 0.34 2.72 0 0 Z " fill="#9BF8F9" transform="translate(286,320)"/>
<path d="M0 0 C0.66 0 1.32 0 2 0 C2 0.66 2 1.32 2 2 C2.66 2 3.32 2 4 2 C4 2.99 4 3.98 4 5 C3.34 5 2.68 5 2 5 C1.67 5.66 1.34 6.32 1 7 C0.67 4.69 0.34 2.38 0 0 Z " fill="#9CF2F3" transform="translate(274,290)"/>
<path d="M0 0 C0.33 0.99 0.66 1.98 1 3 C1.66 3 2.32 3 3 3 C2.67 3.99 2.34 4.98 2 6 C1.01 5.67 0.02 5.34 -1 5 C-1.33 6.32 -1.66 7.64 -2 9 C-2.33 8.34 -2.66 7.68 -3 7 C-2.06421005 4.64018187 -1.06652192 2.30368736 0 0 Z " fill="#6CE7EF" transform="translate(147,263)"/>
<path d="M0 0 C0.99 0 1.98 0 3 0 C3 1.98 3 3.96 3 6 C2.01 6 1.02 6 0 6 C0 4.02 0 2.04 0 0 Z " fill="#9FF1F3" transform="translate(257,246)"/>
<path d="M0 0 C1.485 0.99 1.485 0.99 3 2 C3.1875 5.125 3.1875 5.125 3 8 C2.01 8.495 2.01 8.495 1 9 C0.67 6.03 0.34 3.06 0 0 Z " fill="#A4F6F7" transform="translate(251,229)"/>
<path d="M0 0 C1.41750563 0.11509661 2.83401169 0.24253658 4.25 0.375 C5.03890625 0.44460937 5.8278125 0.51421875 6.640625 0.5859375 C9.085877 1.01507113 10.84836903 1.78600638 13 3 C9.57056481 4.18771723 7.62215325 3.80226223 4.25 2.5625 C3.45078125 2.27503906 2.6515625 1.98757812 1.828125 1.69140625 C1.22484375 1.46324219 0.6215625 1.23507813 0 1 C0 0.67 0 0.34 0 0 Z " fill="#333333" transform="translate(428,2)"/>
<path d="M0 0 C0.125 2.875 0.125 2.875 0 6 C-0.66 6.66 -1.32 7.32 -2 8 C-2.66 6.35 -3.32 4.7 -4 3 C-1.125 0 -1.125 0 0 0 Z " fill="#9AF6F8" transform="translate(68,352)"/>
<path d="M0 0 C0.66 0 1.32 0 2 0 C2.625 3.375 2.625 3.375 3 7 C2.34 7.66 1.68 8.32 1 9 C0.67 6.03 0.34 3.06 0 0 Z " fill="#9CEFF0" transform="translate(329,351)"/>
<path d="M0 0 C0.33 0 0.66 0 1 0 C2.125 7.625 2.125 7.625 1 11 C0.34 11 -0.32 11 -1 11 C-0.67 7.37 -0.34 3.74 0 0 Z " fill="#91DFE4" transform="translate(387,281)"/>
<path d="M0 0 C2 3 2 3 2 5 C1.34 5 0.68 5 0 5 C-0.33 5.99 -0.66 6.98 -1 8 C-1.66 6.02 -2.32 4.04 -3 2 C-2.01 2.33 -1.02 2.66 0 3 C0 2.01 0 1.02 0 0 Z " fill="#79EBED" transform="translate(210,235)"/>
<path d="M0 0 C0.99 0.33 1.98 0.66 3 1 C3.33 2.65 3.66 4.3 4 6 C2.68 5.67 1.36 5.34 0 5 C0 3.35 0 1.7 0 0 Z " fill="#A7FCFC" transform="translate(239,202)"/>
<path d="M0 0 C0.99 0.33 1.98 0.66 3 1 C-0.465 3.97 -0.465 3.97 -4 7 C-2 3 -2 3 0 0 Z " fill="#414141" transform="translate(474,470)"/>
<path d="M0 0 C2.88437779 1.29299694 4.87219421 2.65941363 7 5 C6.67 5.66 6.34 6.32 6 7 C1.125 2.25 1.125 2.25 0 0 Z " fill="#3E3E3E" transform="translate(23,470)"/>
<path d="M0 0 C0 3 0 3 -2 5.1875 C-2.66 5.785625 -3.32 6.38375 -4 7 C-4.66 6.67 -5.32 6.34 -6 6 C-4.02 4.02 -2.04 2.04 0 0 Z " fill="#464646" transform="translate(29,23)"/>
<path d="M0 0 C0.33 0.66 0.66 1.32 1 2 C-2 4 -2 4 -5 4 C-5 3.34 -5 2.68 -5 2 C-3.35 1.34 -1.7 0.68 0 0 Z " fill="#1B1B1B" transform="translate(454,487)"/>
<path d="M0 0 C1.98 0.66 3.96 1.32 6 2 C6 2.66 6 3.32 6 4 C4.02 3.34 2.04 2.68 0 2 C0 1.34 0 0.68 0 0 Z " fill="#2B2B2B" transform="translate(449,9)"/>
<path d="M0 0 C0.99 0.33 1.98 0.66 3 1 C-0.75 4 -0.75 4 -3 4 C-3 3.34 -3 2.68 -3 2 C-2.01 1.34 -1.02 0.68 0 0 Z " fill="#232323" transform="translate(48,9)"/>
<path d="M0 0 C1.98 0.66 3.96 1.32 6 2 C5.34 2.66 4.68 3.32 4 4 C2.68 3.34 1.36 2.68 0 2 C0 1.34 0 0.68 0 0 Z " fill="#1B1B1B" transform="translate(45,487)"/>
<path d="M0 0 C0.66 0 1.32 0 2 0 C2.66 1.65 3.32 3.3 4 5 C3.01 5.495 3.01 5.495 2 6 C1.34 4.02 0.68 2.04 0 0 Z " fill="#2B2B2B" transform="translate(487,45)"/>
<path d="M0 0 C2.62187494 1.04874998 3.79371361 1.64931313 5.25 4.125 C5.4975 4.74375 5.745 5.3625 6 6 C3.97945196 4.35830472 1.97956942 2.69088222 0 1 C0 0.67 0 0.34 0 0 Z " fill="#535353" transform="translate(470,24)"/>
<path d="M0 0 C1.98 0.66 3.96 1.32 6 2 C6 2.66 6 3.32 6 4 C4.02 3.34 2.04 2.68 0 2 C0 1.34 0 0.68 0 0 Z " fill="#363636" transform="translate(442,5)"/>
<path d="M0 0 C0 0.99 0 1.98 0 3 C-1.98 3.99 -1.98 3.99 -4 5 C-3 2 -3 2 0 0 Z " fill="#222222" transform="translate(464,480)"/>
<path d="M0 0 C0.33 0.99 0.66 1.98 1 3 C-0.32 3.99 -1.64 4.98 -3 6 C-1.125 1.125 -1.125 1.125 0 0 Z " fill="#1D1D1D" transform="translate(18,35)"/>
<path d="M0 0 C0 0.99 0 1.98 0 3 C-1.32 3.33 -2.64 3.66 -4 4 C-2.68 2.68 -1.36 1.36 0 0 Z " fill="#161616" transform="translate(39,15)"/>
<path d="M0 0 C0.66 0.33 1.32 0.66 2 1 C0.35 1.66 -1.3 2.32 -3 3 C-3 2.34 -3 1.68 -3 1 C-2.01 0.67 -1.02 0.34 0 0 Z " fill="#323232" transform="translate(446,491)"/>
<path d="M0 0 C0.66 0 1.32 0 2 0 C2 1.32 2 2.64 2 4 C1.34 4 0.68 4 0 4 C0 2.68 0 1.36 0 0 Z " fill="#262626" transform="translate(498,420)"/>
<path d="M0 0 C0.33 0.99 0.66 1.98 1 3 C0.34 3.66 -0.32 4.32 -1 5 C-1.33 4.34 -1.66 3.68 -2 3 C-1.34 2.01 -0.68 1.02 0 0 Z " fill="#292929" transform="translate(11,46)"/>
<path d="M0 0 C0.99 0.495 0.99 0.495 2 1 C1.67 2.32 1.34 3.64 1 5 C0.67 3.35 0.34 1.7 0 0 Z " fill="#383838" transform="translate(496,66)"/>
<path d="M0 0 C0.33 0.99 0.66 1.98 1 3 C0.01 3 -0.98 3 -2 3 C-1.34 2.01 -0.68 1.02 0 0 Z " fill="#2A2A2A" transform="translate(14,41)"/>
<path d="M0 0 C0.99 0.33 1.98 0.66 3 1 C3 1.66 3 2.32 3 3 C2.01 2.67 1.02 2.34 0 2 C0 1.34 0 0.68 0 0 Z " fill="#1E1E1E" transform="translate(481,36)"/>
<path d="M0 0 C0.99 0.33 1.98 0.66 3 1 C3 1.66 3 2.32 3 3 C2.01 2.67 1.02 2.34 0 2 C0 1.34 0 0.68 0 0 Z " fill="#0D0D0D" transform="translate(478,32)"/>
<path d="M0 0 C1.98 0.99 1.98 0.99 4 2 C2.68 2 1.36 2 0 2 C0 1.34 0 0.68 0 0 Z " fill="#303030" transform="translate(35,481)"/>
<path d="M0 0 C0.66 0.33 1.32 0.66 2 1 C1.01 1.99 0.02 2.98 -1 4 C-0.67 2.68 -0.34 1.36 0 0 Z " fill="#1F1F1F" transform="translate(489,450)"/>
<path d="M0 0 C0.66 0 1.32 0 2 0 C2 0.66 2 1.32 2 2 C1.01 1.67 0.02 1.34 -1 1 C-0.67 0.67 -0.34 0.34 0 0 Z " fill="#222222" transform="translate(456,485)"/>
<path d="M0 0 C0.66 0 1.32 0 2 0 C2.33 0.99 2.66 1.98 3 3 C2.34 3 1.68 3 1 3 C0.67 2.01 0.34 1.02 0 0 Z " fill="#373737" transform="translate(12,455)"/>
<path d="M0 0 C0.99 0.33 1.98 0.66 3 1 C2.34 1.66 1.68 2.32 1 3 C0.67 2.01 0.34 1.02 0 0 Z " fill="#3B3B3B" transform="translate(9,450)"/>
<path d="M0 0 C0.66 0 1.32 0 2 0 C2.33 0.99 2.66 1.98 3 3 C2.34 3 1.68 3 1 3 C0.67 2.01 0.34 1.02 0 0 Z " fill="#131313" transform="translate(494,62)"/>
<path d="M0 0 C0.66 0 1.32 0 2 0 C1.67 0.99 1.34 1.98 1 3 C0.67 2.01 0.34 1.02 0 0 Z " fill="#191919" transform="translate(485,42)"/>
<path d="M0 0 C0.66 0 1.32 0 2 0 C2 0.66 2 1.32 2 2 C1.01 1.67 0.02 1.34 -1 1 C-0.67 0.67 -0.34 0.34 0 0 Z " fill="#474747" transform="translate(55,6)"/>
<path d="M0 0 C0.99 0.33 1.98 0.66 3 1 C2.01 1.33 1.02 1.66 0 2 C0 1.34 0 0.68 0 0 Z " fill="#1F1F1F" transform="translate(67,2)"/>
<path d="M0 0 C0.99 0 1.98 0 3 0 C2.67 0.66 2.34 1.32 2 2 C1.34 1.34 0.68 0.68 0 0 Z " fill="#303030" transform="translate(54,492)"/>
<path d="M0 0 C0.66 0 1.32 0 2 0 C2 0.66 2 1.32 2 2 C1.34 2 0.68 2 0 2 C0 1.34 0 0.68 0 0 Z " fill="#272727" transform="translate(42,485)"/>
<path d="M0 0 C0.66 0 1.32 0 2 0 C2 0.66 2 1.32 2 2 C1.34 2 0.68 2 0 2 C0 1.34 0 0.68 0 0 Z " fill="#212121" transform="translate(466,478)"/>
<path d="M0 0 C0.99 0.495 0.99 0.495 2 1 C1.67 1.66 1.34 2.32 1 3 C0.67 2.01 0.34 1.02 0 0 Z " fill="#6D6D6D" transform="translate(6,443)"/>
<path d="M0 0 C0.66 0.33 1.32 0.66 2 1 C1.01 1 0.02 1 -1 1 C-0.67 0.67 -0.34 0.34 0 0 Z " fill="#282828" transform="translate(495,436)"/>
<path d="M0 0 C0.66 0 1.32 0 2 0 C2 0.66 2 1.32 2 2 C1.34 2 0.68 2 0 2 C0 1.34 0 0.68 0 0 Z " fill="#1B1B1B" transform="translate(496,431)"/>
<path d="M0 0 C0.66 0 1.32 0 2 0 C2 0.66 2 1.32 2 2 C1.34 2 0.68 2 0 2 C0 1.34 0 0.68 0 0 Z " fill="#3F3F3F" transform="translate(0,423)"/>
<path d="M0 0 C0.66 0 1.32 0 2 0 C2 0.66 2 1.32 2 2 C1.34 2 0.68 2 0 2 C0 1.34 0 0.68 0 0 Z " fill="#4D4D4D" transform="translate(0,420)"/>
<path d="M0 0 C0.66 0 1.32 0 2 0 C2 0.66 2 1.32 2 2 C1.34 2 0.68 2 0 2 C0 1.34 0 0.68 0 0 Z " fill="#2F2F2F" transform="translate(0,78)"/>
<path d="M0 0 C1 4 1 4 1 4 Z " fill="#393939" transform="translate(1,73)"/>
<path d="M0 0 C0.66 0 1.32 0 2 0 C2 0.66 2 1.32 2 2 C1.34 2 0.68 2 0 2 C0 1.34 0 0.68 0 0 Z " fill="#323232" transform="translate(466,20)"/>
<path d="M0 0 C0.66 0 1.32 0 2 0 C2 0.66 2 1.32 2 2 C1.34 2 0.68 2 0 2 C0 1.34 0 0.68 0 0 Z " fill="#252525" transform="translate(459,15)"/>
<path d="M0 0 C0.66 0 1.32 0 2 0 C2 0.66 2 1.32 2 2 C1.34 2 0.68 2 0 2 C0 1.34 0 0.68 0 0 Z " fill="#151515" transform="translate(42,13)"/>
<path d="M0 0 C0.66 0 1.32 0 2 0 C2 0.66 2 1.32 2 2 C1.34 2 0.68 2 0 2 C0 1.34 0 0.68 0 0 Z " fill="#3B3B3B" transform="translate(456,13)"/>
<path d="M0 0 C0.66 0.33 1.32 0.66 2 1 C1.01 1 0.02 1 -1 1 C-0.67 0.67 -0.34 0.34 0 0 Z " fill="#2C2C2C" transform="translate(60,4)"/>
<path d="M0 0 C0.99 0.33 1.98 0.66 3 1 C2.01 1.33 1.02 1.66 0 2 C0 1.34 0 0.68 0 0 Z " fill="#4A4A4A" transform="translate(63,3)"/>
<path d="M0 0 C1.485 0.99 1.485 0.99 3 2 C2.01 2 1.02 2 0 2 C0 1.34 0 0.68 0 0 Z " fill="#151520" transform="translate(422,0)"/>
<path d="M0 0 C0.99 0.495 0.99 0.495 2 1 C1.01 1.495 1.01 1.495 0 2 C0 1.34 0 0.68 0 0 Z " fill="#202020" transform="translate(32,478)"/>
<path d="" fill="#414141" transform="translate(0,0)"/>
<path d="" fill="#414141" transform="translate(0,0)"/>
<path d="M0 0 C3 1 3 1 3 1 Z " fill="#7FFFFF" transform="translate(370,366)"/>
<path d="" fill="#5F5F5F" transform="translate(0,0)"/>
<path d="M0 0 C0.33 0.66 0.66 1.32 1 2 C0.34 1.67 -0.32 1.34 -1 1 C-0.67 0.67 -0.34 0.34 0 0 Z " fill="#535353" transform="translate(499,78)"/>
<path d="M0 0 C0.66 0 1.32 0 2 0 C1.67 0.66 1.34 1.32 1 2 C0.67 1.34 0.34 0.68 0 0 Z " fill="#151515" transform="translate(20,32)"/>
<path d="M0 0 C0.66 0.66 1.32 1.32 2 2 C1.34 2 0.68 2 0 2 C0 1.34 0 0.68 0 0 Z " fill="#242424" transform="translate(32,20)"/>
<path d="M0 0 C0.66 0 1.32 0 2 0 C1.67 0.66 1.34 1.32 1 2 C0.67 1.34 0.34 0.68 0 0 Z " fill="#313131" transform="translate(463,18)"/>
<path d="M0 0 C0.33 0.66 0.66 1.32 1 2 C0.34 1.67 -0.32 1.34 -1 1 C-0.67 0.67 -0.34 0.34 0 0 Z " fill="#2C2C2C" transform="translate(462,16)"/>
<path d="M0 0 C0.33 0.66 0.66 1.32 1 2 C0.34 1.67 -0.32 1.34 -1 1 C-0.67 0.67 -0.34 0.34 0 0 Z " fill="#1C1C1C" transform="translate(76,0)"/>
<path d="M0 0 C3 1 3 1 3 1 Z " fill="#7C7C7C" transform="translate(83,0)"/>
<path d="" fill="#1E1E1E" transform="translate(0,0)"/>
<path d="" fill="#242424" transform="translate(0,0)"/>
<path d="M0 0 C2 1 2 1 2 1 Z " fill="#6E6E6E" transform="translate(59,494)"/>
<path d="" fill="#151515" transform="translate(0,0)"/>
<path d="M0 0 C2 1 2 1 2 1 Z " fill="#2A2A2A" transform="translate(485,456)"/>
<path d="" fill="#676767" transform="translate(0,0)"/>
<path d="" fill="#202020" transform="translate(0,0)"/>
<path d="" fill="#2A2A2A" transform="translate(0,0)"/>
<path d="" fill="#787878" transform="translate(0,0)"/>
<path d="M0 0 C2 1 2 1 2 1 Z " fill="#474747" transform="translate(426,1)"/>
<path d="" fill="#363636" transform="translate(0,0)"/>
<path d="M0 0 C2 1 2 1 2 1 Z " fill="#303030" transform="translate(72,1)"/>
<path d="M0 0 C2 1 2 1 2 1 Z " fill="#4E4E4E" transform="translate(414,0)"/>
<path d="" fill="#555555" transform="translate(0,0)"/>
<path d="" fill="#000000" transform="translate(0,0)"/>
<path d="" fill="#555555" transform="translate(0,0)"/>
<path d="" fill="#000000" transform="translate(0,0)"/>
<path d="" fill="#404040" transform="translate(0,0)"/>
<path d="" fill="#555555" transform="translate(0,0)"/>
<path d="" fill="#555555" transform="translate(0,0)"/>
<path d="" fill="#000000" transform="translate(0,0)"/>
<path d="" fill="#000000" transform="translate(0,0)"/>
<path d="" fill="#000000" transform="translate(0,0)"/>
<path d="" fill="#000000" transform="translate(0,0)"/>
<path d="" fill="#7F7F7F" transform="translate(0,0)"/>
</svg>
